<svg width="256" height="215" viewBox="0 0 256 215" fill="none" xmlns="http://www.w3.org/2000/svg">
<circle cx="128.5" cy="107.5" r="107.5" fill="#754FC6"/>
<g clip-path="url(#clip0_150_56351)">
<rect x="27.3066" y="54.9031" width="201.664" height="135.858" rx="6" fill="white"/>
<path d="M128.139 90.7213H128.139C132.007 90.7213 135.836 91.483 139.409 92.963C142.982 94.443 146.229 96.6123 148.963 99.3469C151.698 102.082 153.867 105.328 155.347 108.901C156.827 112.474 157.589 116.304 157.589 120.171V190.73H98.6895V120.171C98.6895 116.304 99.4512 112.474 100.931 108.901C102.411 105.328 104.58 102.082 107.315 99.3469C110.05 96.6123 113.296 94.443 116.869 92.963C120.442 91.483 124.272 90.7213 128.139 90.7213Z" fill="#E6E6E6"/>
<path d="M117.922 126.128H112.633V143.677H117.922V126.128Z" fill="white"/>
<path d="M136.914 145.12H119.364V160.986H136.914V145.12Z" fill="white"/>
<path d="M136.914 126.128H119.364V143.677H136.914V126.128Z" fill="white"/>
<path d="M138.356 124.685H143.645V124.325C143.647 122.116 143.176 119.933 142.264 117.922C141.352 115.911 140.019 114.119 138.356 112.666V124.685Z" fill="white"/>
<path d="M119.364 124.685H136.914V111.541C134.333 109.764 131.273 108.814 128.139 108.818C125.006 108.814 121.945 109.764 119.364 111.541V124.685Z" fill="white"/>
<path d="M117.922 145.12H112.633V157.14C112.633 158.16 113.038 159.138 113.759 159.86C114.481 160.581 115.459 160.986 116.479 160.986H117.922V145.12Z" fill="white"/>
<path d="M138.356 145.12V160.986H139.799C140.819 160.986 141.797 160.581 142.519 159.86C143.24 159.138 143.645 158.16 143.645 157.14V145.12H138.356Z" fill="white"/>
<path d="M117.922 124.685V112.666C116.259 114.119 114.926 115.911 114.014 117.922C113.102 119.933 112.631 122.116 112.633 124.325V124.685H117.922Z" fill="white"/>
<path d="M143.645 126.128H138.356V143.677H143.645V126.128Z" fill="white"/>
<path d="M153.381 149.447C155.107 149.447 156.506 148.048 156.506 146.322C156.506 144.596 155.107 143.196 153.381 143.196C151.655 143.196 150.256 144.596 150.256 146.322C150.256 148.048 151.655 149.447 153.381 149.447Z" fill="#3F3D56"/>
<path d="M54.8533 116.327H50.7021V130.101H54.8533V116.327Z" fill="#F2F2F2"/>
<path d="M69.7596 116.327H55.9854V130.101H69.7596V116.327Z" fill="#F2F2F2"/>
<path d="M75.0427 116.327H70.8916V130.101H75.0427V116.327Z" fill="#F2F2F2"/>
<path d="M70.8916 115.195H75.0428V114.912C75.0443 113.179 74.6746 111.465 73.9585 109.887C73.2425 108.309 72.1967 106.902 70.8916 105.761V115.195Z" fill="#F2F2F2"/>
<path d="M69.7596 131.234H55.9854V143.687H69.7596V131.234Z" fill="#F2F2F2"/>
<path d="M54.8533 131.234H50.7021V140.668C50.7022 141.469 51.0202 142.236 51.5864 142.803C52.1526 143.369 52.9205 143.687 53.7211 143.687H54.8533L54.8533 131.234Z" fill="#F2F2F2"/>
<path d="M70.8916 131.234V143.687H72.0237C72.4202 143.687 72.8128 143.609 73.179 143.457C73.5453 143.305 73.8782 143.083 74.1585 142.803C74.4388 142.522 74.6612 142.19 74.8129 141.823C74.9646 141.457 75.0427 141.064 75.0427 140.668V131.234H70.8916Z" fill="#F2F2F2"/>
<path d="M54.8533 115.195V105.761C53.5482 106.902 52.5024 108.309 51.7864 109.887C51.0704 111.465 50.7007 113.179 50.7022 114.912V115.195H54.8533Z" fill="#F2F2F2"/>
<path d="M100.296 179.168L98.763 180.838L91.5908 175.721L93.8531 173.255L100.296 179.168Z" fill="#FFB6B6"/>
<path d="M102.275 180.228L97.3324 185.614L97.2643 185.551C96.7083 185.041 96.3778 184.331 96.3454 183.577C96.313 182.823 96.5814 182.087 97.0915 181.531L97.0916 181.531L97.248 179.862L99.6788 178.712L100.11 178.241L102.275 180.228Z" fill="#2F2E41"/>
<path d="M101.278 197.808L99.0111 197.807L97.9326 189.063L101.279 189.063L101.278 197.808Z" fill="#FFB6B6"/>
<path d="M101.86 200.006L94.5498 200.005V199.913C94.5499 199.158 94.8496 198.435 95.3832 197.901C95.9168 197.368 96.6404 197.068 97.395 197.068H97.3952L98.7304 196.055L101.222 197.068L101.86 197.068L101.86 200.006Z" fill="#2F2E41"/>
<path d="M90.3374 153.666C90.3374 153.666 76.4882 167.037 85.2434 171.176H87.9495C87.9495 171.176 88.7627 168.287 90.6244 165.851C90.8801 165.516 91.8379 165.584 92.1039 165.258C93.728 163.267 95.4887 161.557 96.7047 161.625L97.5006 170.858L97.1079 173.564C96.8607 175.267 96.9258 177.002 97.2999 178.682L97.023 189.482L101.879 189.485C101.879 189.485 102.075 186.954 102.239 183.788C102.283 182.94 102.648 182.349 102.683 181.446C102.767 179.282 102.489 176.763 102.435 174.996L106.097 155.576L90.3374 153.666Z" fill="#2F2E41"/>
<path d="M96.7164 125.334L94.4582 128.355L89.0459 131.539L92.2293 139.816L92.3501 145.975L92.0538 146.718L92.3885 147.935C92.3885 147.935 92.234 149.359 91.4107 150.416C89.9711 152.264 87.7729 154.273 90.0008 154.78C93.5029 155.576 105.919 157.327 106.556 155.894C106.776 155.399 106.749 153.303 106.619 150.774C106.595 150.301 106.072 149.786 106.042 149.291C106.019 148.919 106.489 148.569 106.463 148.192C106.179 143.988 105.76 139.657 105.76 139.657L107.006 128.068L102.022 126.781L101.463 125.355L96.7164 125.334Z" fill="#8E6ED0"/>
<path d="M84.5938 170.381L85.334 171.317C85.334 171.317 92.1421 176.08 92.3759 176.525L93.4519 177.543L96.0553 174.76L94.7014 173.063C93.6179 171.705 92.2181 170.634 90.6245 169.942L88.5496 168.101L84.5938 170.381Z" fill="#2F2E41"/>
<path d="M88.9089 157.013L90.1487 145.013L90.4759 140.074L87.0058 139.446C87.0058 139.446 86.4862 142.842 86.0316 144.834C85.583 146.8 86.6292 156.75 86.6569 157.012C86.4021 157.24 86.2224 157.54 86.1417 157.872C86.061 158.204 86.0831 158.553 86.205 158.873C86.3269 159.192 86.5428 159.467 86.8244 159.661C87.1059 159.855 87.4396 159.959 87.7815 159.959C88.1234 159.959 88.4572 159.856 88.7389 159.662C89.0206 159.468 89.2369 159.194 89.3591 158.874C89.4813 158.555 89.5037 158.206 89.4233 157.874C89.3429 157.542 89.1635 157.241 88.9089 157.013Z" fill="#FFB9B9"/>
<path d="M84.3967 147.028L90.3872 148.549L90.3456 146.868L90.8002 146.385L91.7086 141.627L93.0119 138.839L92.6731 129.307L89.3629 131.062L89.3589 131.065C88.7808 131.701 88.2974 132.417 87.9234 133.191C86.6755 135.728 85.4768 141.316 84.8493 144.561C84.8277 144.629 84.7861 144.689 84.7299 144.733C84.4186 145.019 84.2155 145.403 84.1548 145.821C84.0941 146.24 84.1795 146.666 84.3967 147.028L84.3967 147.028Z" fill="#8E6ED0"/>
<path d="M120.018 150.092C120.018 150.092 112.726 142.404 112.658 142.259C112.148 138.39 110.683 136.684 110.463 136.869L106.682 138.179C106.682 138.179 107.806 141.741 108.568 143.857C109.296 145.879 117.683 150.817 117.823 151.061C117.673 151.392 117.627 151.762 117.691 152.121C117.755 152.479 117.927 152.81 118.183 153.068C118.44 153.327 118.769 153.502 119.126 153.57C119.484 153.638 119.854 153.596 120.188 153.449C120.521 153.302 120.802 153.057 120.993 152.747C121.184 152.437 121.276 152.076 121.258 151.712C121.24 151.348 121.111 150.999 120.89 150.709C120.669 150.42 120.365 150.205 120.018 150.092H120.018Z" fill="#FFB9B9"/>
<path d="M103.629 128.332C103.629 128.332 107.341 126.513 108.781 130.086C109.57 132.103 111.589 136.999 112.595 140.013C112.602 140.032 112.611 140.05 112.623 140.067C112.892 140.467 113.037 140.937 113.04 141.419C113.04 141.454 113.043 141.489 113.051 141.523C113.051 141.523 108.971 142.318 107.758 144.456L107.277 143.934L107.191 143.568L103.672 134.177L103.629 128.332Z" fill="#8E6ED0"/>
<path d="M99.1168 124.365C101.627 124.365 103.662 122.33 103.662 119.819C103.662 117.309 101.627 115.274 99.1168 115.274C96.6064 115.274 94.5713 117.309 94.5713 119.819C94.5713 122.33 96.6064 124.365 99.1168 124.365Z" fill="#FFB9B9"/>
<path d="M95.7461 122.742C95.6916 122.742 95.6374 122.734 95.5857 122.716C95.3829 122.627 95.2133 122.477 95.1012 122.285C94.3185 121.16 93.9406 119.659 93.9781 117.825C93.994 117.049 94.0818 116.057 94.6252 115.266C95.0822 114.601 96.0066 114.073 96.8682 114.338C96.8583 114.166 96.8966 113.994 96.9786 113.842C97.0607 113.691 97.1833 113.565 97.3328 113.478C97.6591 113.279 98.0519 113.242 98.3984 113.209C99.2734 113.127 100.178 113.042 101.064 113.21C102.057 113.399 102.87 113.911 103.292 114.615L103.301 114.637L103.387 115.055C103.399 115.111 103.422 115.164 103.456 115.21C103.49 115.256 103.534 115.294 103.584 115.322C103.634 115.35 103.69 115.366 103.747 115.37C103.804 115.374 103.861 115.366 103.915 115.346C103.973 115.324 104.037 115.317 104.098 115.327C104.16 115.337 104.218 115.363 104.267 115.402C104.316 115.441 104.353 115.493 104.376 115.551C104.399 115.609 104.406 115.672 104.397 115.734L104.373 115.9L104.623 115.853C104.686 115.842 104.75 115.847 104.81 115.868C104.87 115.889 104.923 115.926 104.964 115.975C105.005 116.024 105.033 116.082 105.044 116.145C105.055 116.207 105.049 116.272 105.027 116.332L104.956 116.522C105.008 116.523 105.059 116.534 105.106 116.555C105.154 116.575 105.196 116.606 105.231 116.644C105.282 116.698 105.314 116.767 105.322 116.841C105.331 116.915 105.315 116.989 105.278 117.053C104.999 117.531 104.603 117.93 104.127 118.212C103.867 118.368 103.583 118.48 103.286 118.543C101.359 118.958 99.3723 119.018 97.4239 118.719C97.5392 119.103 97.5836 119.505 97.5549 119.905C97.4926 120.406 97.1987 120.819 96.8064 120.957C96.7171 120.987 96.6256 121.009 96.5329 121.023C96.4442 121.037 96.3568 121.059 96.2717 121.087C96.1455 121.133 96.0338 121.212 95.9478 121.315C95.8618 121.419 95.8046 121.543 95.7819 121.675C95.7592 121.808 95.7718 121.944 95.8185 122.07C95.8652 122.196 95.9444 122.308 96.0479 122.393L96.2414 122.192L96.1785 122.448C96.1653 122.498 96.1419 122.544 96.1096 122.585C96.0772 122.625 96.0368 122.658 95.9909 122.681C95.9156 122.722 95.8315 122.742 95.7461 122.742Z" fill="#2F2E41"/>
<path d="M55.9854 115.195H69.7596V104.879C67.7342 103.484 65.332 102.738 62.8725 102.742C60.413 102.738 58.0108 103.484 55.9854 104.879V115.195Z" fill="#F2F2F2"/>
<path d="M80.4647 145.192H45.3686C45.1435 145.192 44.9277 145.102 44.7685 144.943C44.6093 144.784 44.5198 144.568 44.5195 144.343V142.079C44.5198 141.854 44.6093 141.638 44.7685 141.479C44.9277 141.319 45.1435 141.23 45.3686 141.23H80.4647C80.6899 141.23 80.9057 141.319 81.0649 141.479C81.2241 141.638 81.3136 141.854 81.3138 142.079V144.343C81.3136 144.568 81.2241 144.784 81.0649 144.943C80.9057 145.102 80.6899 145.192 80.4647 145.192Z" fill="#E6E6E6"/>
<path d="M185.393 116.327H181.242V130.101H185.393V116.327Z" fill="#F2F2F2"/>
<path d="M200.3 116.327H186.525V130.101H200.3V116.327Z" fill="#F2F2F2"/>
<path d="M205.583 116.327H201.432V130.101H205.583V116.327Z" fill="#F2F2F2"/>
<path d="M201.432 115.195H205.583V114.912C205.584 113.179 205.215 111.465 204.499 109.887C203.783 108.309 202.737 106.902 201.432 105.761V115.195Z" fill="#F2F2F2"/>
<path d="M200.3 131.234H186.525V143.687H200.3V131.234Z" fill="#F2F2F2"/>
<path d="M185.393 131.234H181.242V140.668C181.242 141.469 181.56 142.236 182.126 142.803C182.693 143.369 183.46 143.687 184.261 143.687H185.393L185.393 131.234Z" fill="#F2F2F2"/>
<path d="M201.432 131.234V143.687H202.564C202.96 143.687 203.353 143.609 203.719 143.457C204.085 143.305 204.418 143.083 204.699 142.803C204.979 142.522 205.201 142.19 205.353 141.823C205.505 141.457 205.583 141.064 205.583 140.668V131.234H201.432Z" fill="#F2F2F2"/>
<path d="M185.393 115.195V105.761C184.088 106.902 183.042 108.309 182.326 109.887C181.61 111.465 181.241 113.179 181.242 114.912V115.195H185.393Z" fill="#F2F2F2"/>
<path d="M186.525 115.195H200.3V104.879C198.274 103.484 195.872 102.738 193.413 102.742C190.953 102.738 188.551 103.484 186.525 104.879V115.195Z" fill="#F2F2F2"/>
<path d="M211.005 145.192H175.909C175.684 145.192 175.468 145.102 175.309 144.943C175.149 144.784 175.06 144.568 175.06 144.343V142.079C175.06 141.854 175.149 141.638 175.309 141.479C175.468 141.319 175.684 141.23 175.909 141.23H211.005C211.23 141.23 211.446 141.319 211.605 141.479C211.764 141.638 211.854 141.854 211.854 142.079V144.343C211.854 144.568 211.764 144.784 211.605 144.943C211.446 145.102 211.23 145.192 211.005 145.192Z" fill="#E6E6E6"/>
<path d="M221.417 190.97H34.8621C32.7588 190.968 30.7423 190.131 29.255 188.644C27.7677 187.157 26.9311 185.14 26.9287 183.037V62.1131C26.9311 60.0097 27.7677 57.9932 29.255 56.5059C30.7423 55.0187 32.7588 54.1821 34.8621 54.1797H221.417C223.52 54.1821 225.537 55.0187 227.024 56.5059C228.511 57.9932 229.348 60.0097 229.35 62.1131V183.037C229.348 185.14 228.511 187.157 227.024 188.644C225.537 190.131 223.52 190.968 221.417 190.97ZM34.8621 54.6605C32.8862 54.6627 30.9919 55.4486 29.5948 56.8458C28.1977 58.2429 27.4118 60.1372 27.4095 62.1131V183.037C27.4118 185.013 28.1977 186.907 29.5948 188.304C30.9919 189.701 32.8862 190.487 34.8621 190.489H221.417C223.393 190.487 225.287 189.701 226.684 188.304C228.081 186.907 228.867 185.013 228.869 183.037V62.1131C228.867 60.1372 228.081 58.2429 226.684 56.8458C225.287 55.4486 223.393 54.6627 221.417 54.6605H34.8621Z" fill="#CCCCCC"/>
<path d="M9.58137 75C7.17291 74.9981 4.85334 74.0881 3.08384 72.4507C1.31434 70.8133 0.224503 68.5685 0.0310118 66.1626C-0.162479 63.7568 0.554546 61.3661 2.03953 59.4658C3.52451 57.5656 5.66869 56.2949 8.04577 55.9065L125.624 17.1913C127.152 16.9382 128.711 16.9362 130.239 17.1856L247.974 55.9129C250.481 56.3274 252.721 57.7224 254.202 59.7913C255.684 61.8602 256.285 64.4338 255.874 66.9466C255.463 69.4595 254.073 71.7059 252.01 73.1925C249.947 74.679 247.379 75.284 244.871 74.8744C243.603 74.6929 129.042 58.3 127.997 58.2568C126.957 58.3 12.2839 74.7089 11.1257 74.8747C10.6152 74.9581 10.0987 75 9.58137 75Z" fill="#CCCCCC"/>
<path d="M169.954 171.87C170.155 171.609 170.296 171.307 170.368 170.985C170.44 170.664 170.44 170.33 170.369 170.008C170.298 169.687 170.157 169.384 169.957 169.123C169.756 168.861 169.501 168.647 169.209 168.495L169.654 163.363L166.601 162.331L166.074 169.587C165.851 170.096 165.822 170.668 165.993 171.196C166.163 171.724 166.522 172.171 167 172.452C167.478 172.733 168.043 172.83 168.587 172.722C169.132 172.615 169.618 172.312 169.954 171.87Z" fill="#FFB8B8"/>
<path d="M185.188 211.771L182.44 211.771L181.133 201.17L185.189 201.17L185.188 211.771Z" fill="#FFB8B8"/>
<path d="M180.476 210.985H185.776V214.323H177.139C177.139 213.885 177.225 213.451 177.393 213.046C177.56 212.641 177.806 212.273 178.116 211.963C178.426 211.653 178.794 211.407 179.199 211.239C179.604 211.072 180.038 210.985 180.476 210.985Z" fill="#2F2E41"/>
<path d="M178.949 204.737L176.28 205.393L172.48 195.41L176.42 194.443L178.949 204.737Z" fill="#FFB8B8"/>
<path d="M174.186 205.099L179.333 203.834L180.13 207.075L171.742 209.136C171.637 208.71 171.617 208.268 171.684 207.835C171.75 207.402 171.901 206.986 172.128 206.611C172.355 206.236 172.653 205.91 173.007 205.65C173.36 205.391 173.761 205.203 174.186 205.099Z" fill="#2F2E41"/>
<path d="M181.971 208.392C181.72 208.392 181.478 208.299 181.291 208.131C181.105 207.964 180.988 207.733 180.962 207.483L177.799 178.02L175.047 187.03L178.945 201.101C179.012 201.343 178.988 201.6 178.877 201.825C178.766 202.049 178.575 202.224 178.343 202.317L175.244 203.557C175.117 203.608 174.98 203.632 174.843 203.629C174.705 203.626 174.57 203.595 174.445 203.538C174.32 203.481 174.208 203.399 174.115 203.298C174.022 203.196 173.951 203.077 173.906 202.947L169.129 189.242C168.606 187.745 168.375 186.163 168.448 184.579L169.114 169.788L186.674 170.532L186.4 207.125C186.397 207.38 186.299 207.624 186.125 207.811C185.951 207.997 185.713 208.111 185.46 208.132L182.05 208.389C182.023 208.391 181.997 208.392 181.971 208.392Z" fill="#2F2E41"/>
<path d="M179.063 137.056C182.324 137.056 184.967 134.413 184.967 131.152C184.967 127.891 182.324 125.247 179.063 125.247C175.802 125.247 173.158 127.891 173.158 131.152C173.158 134.413 175.802 137.056 179.063 137.056Z" fill="#FFB8B8"/>
<path d="M183.406 171.494C181.851 171.494 179.919 171.367 177.92 171.235C175.189 171.056 172.365 170.87 170.257 170.992C169.973 171.02 169.685 170.975 169.423 170.861C169.161 170.747 168.932 170.567 168.759 170.34C166.586 167.557 169.938 156.707 170.082 156.246L172.809 144.114L172.927 144.14L172.809 144.114C173.409 141.445 175.327 139.477 177.813 138.977C180.14 138.509 182.391 139.441 183.835 141.471C183.911 141.578 183.988 141.689 184.064 141.802C188.765 148.764 186.106 166.058 185.928 167.174C186.176 167.472 187.519 169.153 187.15 170.321C187 170.797 186.592 171.12 185.938 171.284C185.104 171.449 184.255 171.52 183.406 171.494Z" fill="#CCCCCC"/>
<path d="M170.352 171.5C169.817 171.5 169.095 171.302 168.122 170.898C167.704 170.724 166.432 170.194 167.977 156.696C168.735 150.066 169.822 143.482 169.833 143.416L169.843 143.353L169.902 143.326C169.93 143.314 172.706 142.041 173.188 140.406C173.205 140.35 173.224 140.295 173.245 140.242C173.377 139.878 173.645 139.58 173.993 139.409C174.34 139.239 174.74 139.209 175.109 139.326C175.498 139.419 175.838 139.657 176.059 139.991C176.279 140.326 176.364 140.731 176.297 141.126C176.129 142.193 175.806 143.229 175.338 144.201C174.031 146.896 173.147 154.041 173.138 154.113C173.088 154.723 171.902 169.179 171.674 170.276C171.594 170.659 171.447 171.128 171.017 171.356C170.81 171.458 170.582 171.507 170.352 171.5Z" fill="#2F2E41"/>
<path d="M176.803 170.946C176.695 170.946 176.59 170.91 176.505 170.843C174.768 169.523 177.579 153.522 179.246 148.001C179.58 146.896 179.878 145.949 180.13 145.187C180.59 143.82 180.912 142.41 181.089 140.978C181.181 140.203 181.38 139.76 181.699 139.624C181.921 139.53 182.181 139.594 182.473 139.815C184.013 139.739 185.51 140.368 186.897 141.061L188.145 141.683L189.546 166.481C189.506 168.063 186.387 169.181 185.025 169.252C182.84 169.367 178.917 169.722 177.188 170.817C177.075 170.896 176.941 170.941 176.803 170.946Z" fill="#2F2E41"/>
<path d="M169 166.293C168.979 166.293 168.959 166.292 168.938 166.291L166.109 166.117C165.968 166.108 165.83 166.071 165.705 166.006C165.58 165.941 165.469 165.851 165.38 165.741C165.292 165.632 165.227 165.505 165.19 165.368C165.153 165.232 165.145 165.09 165.166 164.95L166.446 156.469L168.856 144.57C168.915 144.277 169.035 143.999 169.209 143.756C169.382 143.512 169.605 143.307 169.863 143.155C170.12 143.003 170.407 142.907 170.704 142.873C171.001 142.839 171.302 142.867 171.587 142.957C172.075 143.112 172.491 143.437 172.76 143.873C173.03 144.308 173.134 144.826 173.056 145.332L171.141 157.255L170.008 165.416C169.973 165.659 169.852 165.881 169.667 166.042C169.482 166.203 169.245 166.292 169 166.293Z" fill="#2F2E41"/>
<path d="M180.142 136.911C181.03 136.93 181.913 136.761 182.732 136.415C183.55 136.069 184.286 135.553 184.892 134.902C185.497 134.251 185.958 133.479 186.243 132.638C186.529 131.796 186.633 130.903 186.549 130.018C186.466 129.133 186.195 128.276 185.757 127.503C185.318 126.73 184.721 126.059 184.004 125.533C183.287 125.007 182.467 124.639 181.598 124.453C180.729 124.266 179.83 124.266 178.961 124.452C177.663 123.663 176.153 123.133 174.64 123.268C173.127 123.403 171.63 124.301 171.065 125.711C170.499 127.121 171.107 128.979 172.514 129.552C173.416 129.919 174.434 129.741 175.397 129.593C176.359 129.445 177.409 129.348 178.247 129.845C179.085 130.342 179.461 131.673 178.711 132.294C178.313 132.636 178.029 133.092 177.897 133.599C177.764 134.107 177.79 134.643 177.97 135.136C178.347 136.111 179.376 136.894 180.142 136.911Z" fill="#2F2E41"/>
<path d="M167.053 137.438C165.514 137.439 164.039 138.051 162.951 139.139C161.863 140.228 161.252 141.703 161.252 143.242C161.252 144.781 161.863 146.257 162.951 147.345C164.039 148.434 165.514 149.046 167.053 149.047H167.053C168.592 149.046 170.067 148.434 171.155 147.346C172.243 146.257 172.854 144.781 172.854 143.242C172.854 141.703 172.243 140.228 171.155 139.139C170.067 138.051 168.592 137.439 167.053 137.438Z" fill="#8E6ED0"/>
<path d="M166.503 145.653C166.35 145.653 166.201 145.604 166.079 145.512L166.071 145.506L164.475 144.285C164.401 144.229 164.339 144.158 164.292 144.077C164.246 143.997 164.216 143.908 164.203 143.815C164.191 143.723 164.197 143.629 164.221 143.539C164.245 143.449 164.287 143.365 164.344 143.291C164.4 143.217 164.471 143.155 164.552 143.108C164.632 143.062 164.721 143.031 164.814 143.019C164.906 143.007 165 143.013 165.09 143.037C165.18 143.061 165.264 143.103 165.338 143.159L166.372 143.952L168.816 140.765C168.872 140.691 168.943 140.629 169.024 140.582C169.104 140.536 169.193 140.505 169.285 140.493C169.378 140.481 169.472 140.487 169.562 140.511C169.652 140.535 169.736 140.577 169.81 140.633L169.81 140.634L169.795 140.655L169.81 140.634C169.959 140.748 170.057 140.917 170.082 141.104C170.106 141.29 170.056 141.479 169.942 141.628L167.068 145.376C167.001 145.462 166.916 145.532 166.818 145.58C166.72 145.628 166.612 145.652 166.503 145.652L166.503 145.653Z" fill="white"/>
<path d="M179.281 153.534H158.908C158.637 153.534 158.369 153.587 158.118 153.691C157.868 153.794 157.64 153.946 157.449 154.138C157.257 154.329 157.105 154.557 157.002 154.807C156.898 155.058 156.845 155.326 156.845 155.597V175.97C156.845 176.241 156.898 176.509 157.002 176.76C157.105 177.01 157.257 177.237 157.449 177.429C157.64 177.621 157.868 177.773 158.118 177.876C158.369 177.98 158.637 178.033 158.908 178.033H179.281C179.552 178.033 179.82 177.98 180.07 177.876C180.321 177.773 180.548 177.621 180.74 177.429C180.931 177.237 181.083 177.01 181.187 176.76C181.291 176.509 181.344 176.241 181.344 175.97V155.597C181.344 155.326 181.291 155.058 181.187 154.807C181.083 154.557 180.931 154.329 180.74 154.138C180.548 153.946 180.321 153.794 180.07 153.691C179.82 153.587 179.552 153.534 179.281 153.534Z" fill="#8E6ED0"/>
<path d="M174.693 168.768L165.074 170.641C164.503 170.751 163.912 170.631 163.43 170.306C162.948 169.981 162.615 169.479 162.503 168.908L161.764 165.111C161.653 164.541 161.774 163.95 162.098 163.468C162.423 162.986 162.926 162.653 163.496 162.541L173.115 160.668C173.686 160.557 174.277 160.678 174.759 161.003C175.241 161.327 175.574 161.83 175.686 162.4L176.425 166.197C176.536 166.768 176.415 167.359 176.091 167.841C175.766 168.323 175.263 168.656 174.693 168.768Z" fill="white"/>
<path d="M172.769 164.282L165.428 165.712C165.294 165.738 165.154 165.71 165.041 165.633C164.928 165.557 164.849 165.438 164.823 165.304C164.797 165.17 164.825 165.031 164.902 164.917C164.978 164.804 165.096 164.725 165.231 164.699L172.571 163.27C172.638 163.257 172.706 163.257 172.773 163.27C172.839 163.284 172.902 163.31 172.959 163.348C173.015 163.386 173.063 163.434 173.1 163.491C173.138 163.547 173.164 163.611 173.177 163.677C173.19 163.744 173.189 163.812 173.176 163.879C173.162 163.945 173.136 164.008 173.098 164.064C173.06 164.121 173.012 164.169 172.955 164.206C172.899 164.243 172.835 164.269 172.769 164.282Z" fill="#8E6ED0"/>
<path d="M171.342 166.399L167.545 167.139C167.479 167.152 167.41 167.151 167.344 167.138C167.277 167.124 167.214 167.098 167.158 167.06C167.102 167.022 167.054 166.974 167.016 166.917C166.979 166.861 166.953 166.797 166.94 166.731C166.927 166.664 166.928 166.596 166.941 166.53C166.954 166.463 166.981 166.4 167.019 166.344C167.057 166.288 167.105 166.24 167.162 166.202C167.218 166.165 167.281 166.139 167.348 166.126L171.145 165.387C171.279 165.361 171.418 165.389 171.532 165.465C171.645 165.542 171.724 165.66 171.75 165.794C171.776 165.929 171.748 166.068 171.671 166.181C171.595 166.295 171.476 166.373 171.342 166.399H171.342Z" fill="#8E6ED0"/>
<path d="M181.344 155.597V158.305H156.845V155.597C156.845 155.326 156.898 155.058 157.002 154.807C157.105 154.557 157.257 154.329 157.449 154.138C157.64 153.946 157.868 153.794 158.118 153.691C158.369 153.587 158.637 153.534 158.908 153.534H179.281C179.552 153.534 179.82 153.587 180.07 153.691C180.321 153.794 180.548 153.946 180.74 154.138C180.931 154.329 181.083 154.557 181.187 154.807C181.291 155.058 181.344 155.326 181.344 155.597Z" fill="#3F3D56"/>
<path d="M178.664 157.01C178.837 156.729 179.069 156.489 179.344 156.308C179.619 156.127 179.931 156.008 180.257 155.96C180.583 155.912 180.916 155.936 181.231 156.03C181.547 156.125 181.838 156.287 182.084 156.507L186.723 154.266L188.772 156.753L182.177 159.825C181.781 160.214 181.257 160.444 180.703 160.472C180.148 160.501 179.603 160.324 179.17 159.977C178.737 159.63 178.447 159.137 178.354 158.59C178.26 158.043 178.371 157.481 178.664 157.01Z" fill="#FFB8B8"/>
<path d="M185.108 159.416C184.879 159.416 184.658 159.339 184.478 159.198C184.299 159.056 184.172 158.859 184.119 158.637L183.445 155.836C183.393 155.625 183.411 155.404 183.495 155.204C183.579 155.004 183.725 154.836 183.911 154.726L187.975 152.294L185.898 144.689C185.751 144.148 185.783 143.575 185.989 143.054H185.989C186.185 142.56 186.528 142.138 186.972 141.847C187.416 141.555 187.94 141.407 188.471 141.424C189.002 141.44 189.515 141.619 189.94 141.938C190.366 142.256 190.683 142.698 190.848 143.203L193.141 150.205C193.423 151.058 193.425 151.979 193.148 152.834C192.87 153.689 192.327 154.433 191.598 154.958L185.703 159.223C185.53 159.348 185.322 159.416 185.108 159.416Z" fill="#2F2E41"/>
<path d="M191.822 214.53H167.301C167.237 214.53 167.176 214.505 167.131 214.46C167.086 214.414 167.061 214.353 167.061 214.29C167.061 214.226 167.086 214.165 167.131 214.12C167.176 214.074 167.237 214.049 167.301 214.049H191.822C191.886 214.049 191.947 214.074 191.992 214.12C192.037 214.165 192.063 214.226 192.063 214.29C192.063 214.353 192.037 214.414 191.992 214.46C191.947 214.505 191.886 214.53 191.822 214.53Z" fill="#CCCCCC"/>
</g>
<defs>
<clipPath id="clip0_150_56351">
<rect width="256" height="197.53" fill="white" transform="translate(0 17)"/>
</clipPath>
</defs>
</svg>
