<svg width="270" height="304" viewBox="0 0 270 304" fill="none" xmlns="http://www.w3.org/2000/svg">
<rect y="33" width="270" height="270" rx="135" fill="#AE98DD"/>
<g clip-path="url(#clip0_150_56294)">
<path d="M179.012 127.704C179.012 127.704 180.014 141.228 180.014 141.729C180.014 142.23 173.001 176.791 173.001 176.791C173.001 176.791 162.983 195.825 173.001 195.324C183.019 194.823 180.014 177.292 180.014 177.292L190.532 148.241L186.024 127.704L179.012 127.704Z" fill="#FFB8B8"/>
<path d="M228.6 278.972L230.103 289.991L219.584 290.993L221.087 277.469L228.6 278.972Z" fill="#FFB8B8"/>
<path d="M195.54 278.972L194.037 289.991L204.556 290.993L203.053 277.469L195.54 278.972Z" fill="#FFB8B8"/>
<path d="M184.02 175.789L181.516 179.296C181.516 179.296 180.013 194.322 181.516 199.331C183.018 204.34 186.023 227.381 186.023 228.883C186.023 230.386 186.524 231.388 186.023 231.889C185.523 232.39 186.023 237.398 186.023 237.398V239.903L192.535 276.968C192.535 276.968 188.528 281.476 191.533 281.476C194.539 281.476 205.558 281.476 205.057 276.468L204.055 275.967C204.055 275.967 202.553 242.908 203.054 241.406C203.554 239.903 204.055 230.386 204.055 230.386L208.563 199.832L217.078 229.384L219.082 273.462C219.082 273.462 217.078 278.471 219.082 279.473C221.085 280.475 229.6 283.981 230.101 278.972C230.602 273.963 233.107 230.386 233.107 228.382C233.107 226.379 232.105 195.324 232.105 195.324C232.105 195.324 232.606 190.315 233.107 189.313C233.608 188.312 232.606 187.31 233.107 185.807C233.608 184.304 232.105 179.296 232.105 179.296L209.565 173.285L184.02 175.789Z" fill="#2F2E41"/>
<path d="M201.552 287.988C201.552 287.988 204.057 285.483 200.55 285.483C198.299 285.529 196.082 286.041 194.039 286.986L191.534 296.002C191.534 296.002 181.266 304.267 192.787 303.265C204.307 302.263 206.06 302.013 206.561 301.011C206.912 300.308 206.277 292.943 205.867 288.614C205.849 288.405 205.774 288.206 205.652 288.036C205.53 287.866 205.364 287.732 205.172 287.649C204.98 287.565 204.77 287.535 204.562 287.561C204.354 287.588 204.158 287.67 203.993 287.798C203.667 288.101 203.248 288.284 202.805 288.318C202.362 288.353 201.921 288.236 201.552 287.988Z" fill="#2F2E41"/>
<path d="M223.089 287.988C223.089 287.988 220.585 285.483 224.091 285.483C226.342 285.529 228.559 286.041 230.603 286.986L233.107 296.002C233.107 296.002 243.375 304.266 231.855 303.264C220.334 302.263 217.079 302.012 216.578 301.01C216.229 300.313 217.581 293.053 218.434 288.711C218.481 288.472 218.588 288.248 218.746 288.061C218.904 287.875 219.106 287.732 219.335 287.645C219.564 287.559 219.81 287.533 220.052 287.569C220.294 287.605 220.522 287.702 220.716 287.851C221.041 288.132 221.45 288.297 221.879 288.322C222.308 288.346 222.734 288.229 223.089 287.988Z" fill="#2F2E41"/>
<path d="M186.023 84.628C186.023 84.628 188.027 94.6457 188.027 96.1484C188.027 97.651 196.542 102.159 196.542 102.159L206.059 90.1377C206.059 90.1377 200.048 81.6227 200.048 79.6191L186.023 84.628Z" fill="#FFB8B8"/>
<path d="M193.536 97.651C193.536 97.651 189.171 96.489 187.847 94.5656C187.847 94.5656 174.002 108.17 174.002 110.674L185.021 130.209C185.021 130.209 185.021 137.221 186.023 137.722C187.025 138.223 186.023 137.722 186.023 139.725C186.023 141.729 183.018 154.752 184.02 156.755C185.021 158.759 186.023 157.256 185.021 160.262C184.02 163.267 181.515 179.295 181.515 179.295C181.515 179.295 190.531 176.29 203.554 181.299C216.577 186.308 232.105 179.295 232.105 179.295C232.105 179.295 228.098 170.279 229.099 167.274C230.101 164.269 226.595 158.759 226.595 158.759L224.09 112.678C224.09 112.678 227.597 92.1413 225.092 91.1395L220.083 89.1359L204.043 87.1645C204.043 87.1645 200.048 97.1501 193.536 97.651Z" fill="#754FC6"/>
<path d="M179.013 107.168L174.004 110.674C174.004 110.674 171.499 118.187 174.004 121.694C176.508 125.2 177.51 130.209 177.51 130.209L187.528 129.207L179.013 107.168Z" fill="#754FC6"/>
<path d="M180.621 72.1015V26.4322C180.621 22.9611 179.937 19.5239 178.609 16.317C177.281 13.1101 175.334 10.1963 172.879 7.74182C170.425 5.28736 167.511 3.34038 164.304 2.01204C161.097 0.683693 157.66 2.73747e-06 154.189 0H57.4322C53.9611 -8.21213e-06 50.5239 0.683674 47.317 2.01201C44.1102 3.34034 41.1963 5.28731 38.7418 7.74176C36.2874 10.1962 34.3404 13.1101 33.012 16.317C31.6837 19.5239 31 22.961 31 26.4321V276.978C31 283.988 33.7848 290.711 38.7418 295.668C43.6988 300.625 50.4219 303.41 57.4321 303.41H154.189C161.199 303.41 167.922 300.625 172.879 295.668C177.836 290.711 180.621 283.988 180.621 276.978V104.61L180.621 72.1015Z" fill="#424242"/>
<path d="M155.255 6.87673H142.625C143.206 8.30071 143.427 9.84567 143.27 11.3755C143.113 12.9054 142.583 14.3732 141.725 15.6496C140.867 16.926 139.709 17.9718 138.351 18.695C136.994 19.4182 135.48 19.7965 133.942 19.7967H78.5114C76.9735 19.7965 75.4593 19.4182 74.102 18.695C72.7448 17.9718 71.5863 16.926 70.7284 15.6496C69.8706 14.3732 69.3399 12.9054 69.183 11.3755C69.0261 9.84566 69.2478 8.30069 69.8286 6.87671H58.0322C52.797 6.87671 47.7763 8.95637 44.0745 12.6582C40.3726 16.36 38.293 21.3808 38.293 26.6159V276.794C38.293 282.029 40.3726 287.05 44.0744 290.752C47.7763 294.454 52.797 296.533 58.0322 296.533H155.255C157.847 296.533 160.414 296.023 162.809 295.031C165.203 294.039 167.38 292.585 169.212 290.752C171.045 288.919 172.499 286.743 173.491 284.348C174.483 281.953 174.994 279.386 174.994 276.794V26.6159C174.994 24.0238 174.483 21.4569 173.491 19.0621C172.499 16.6672 171.045 14.4912 169.212 12.6582C167.38 10.8252 165.203 9.37126 162.809 8.37928C160.414 7.38729 157.847 6.87672 155.255 6.87673Z" fill="white"/>
<path d="M168.093 118.696H47.915C47.3249 118.695 46.7593 118.46 46.3421 118.043C45.9248 117.626 45.6901 117.06 45.6895 116.47V86.6591C45.6901 86.0691 45.9248 85.5034 46.3421 85.0862C46.7593 84.669 47.3249 84.4343 47.915 84.4336H168.093C168.683 84.4343 169.249 84.669 169.666 85.0862C170.084 85.5034 170.318 86.0691 170.319 86.6591V116.47C170.318 117.06 170.084 117.626 169.666 118.043C169.249 118.46 168.683 118.695 168.093 118.696ZM47.915 85.3238C47.5609 85.3242 47.2215 85.465 46.9712 85.7153C46.7208 85.9657 46.58 86.3051 46.5797 86.6591V116.47C46.58 116.824 46.7208 117.164 46.9712 117.414C47.2215 117.664 47.5609 117.805 47.915 117.805H168.093C168.447 117.805 168.787 117.664 169.037 117.414C169.288 117.164 169.428 116.824 169.429 116.47V86.6591C169.428 86.3051 169.288 85.9657 169.037 85.7153C168.787 85.465 168.447 85.3242 168.093 85.3238L47.915 85.3238Z" fill="#E6E6E6"/>
<rect x="45.5918" y="133.408" width="124.653" height="34.1858" rx="6" fill="#754FC6"/>
<path d="M167.996 167.67H47.8173C47.2273 167.669 46.6616 167.434 46.2444 167.017C45.8272 166.6 45.5925 166.034 45.5918 165.444V135.633C45.5925 135.043 45.8272 134.477 46.2444 134.06C46.6616 133.643 47.2273 133.408 47.8173 133.408H167.996C168.586 133.408 169.151 133.643 169.569 134.06C169.986 134.477 170.221 135.043 170.221 135.633V165.444C170.221 166.034 169.986 166.6 169.569 167.017C169.151 167.434 168.586 167.669 167.996 167.67ZM47.8173 134.298C47.4633 134.298 47.1239 134.439 46.8735 134.689C46.6232 134.94 46.4824 135.279 46.482 135.633V165.444C46.4824 165.798 46.6232 166.138 46.8735 166.388C47.1239 166.639 47.4633 166.779 47.8173 166.78H167.996C168.35 166.779 168.689 166.639 168.94 166.388C169.19 166.138 169.331 165.798 169.331 165.444V135.633C169.331 135.279 169.19 134.94 168.94 134.689C168.689 134.439 168.35 134.298 167.996 134.298L47.8173 134.298Z" fill="white"/>
<path d="M66.589 109.486C71.5958 109.486 75.6547 105.428 75.6547 100.421C75.6547 95.414 71.5958 91.3552 66.589 91.3552C61.5822 91.3552 57.5234 95.414 57.5234 100.421C57.5234 105.428 61.5822 109.486 66.589 109.486Z" fill="#E6E6E6"/>
<path d="M66.4895 158.461C71.4963 158.461 75.5551 154.402 75.5551 149.395C75.5551 144.388 71.4963 140.329 66.4895 140.329C61.4826 140.329 57.4238 144.388 57.4238 149.395C57.4238 154.402 61.4826 158.461 66.4895 158.461Z" fill="white"/>
<path d="M87.526 94.377C87.1257 94.3777 86.742 94.5372 86.4592 94.8205C86.1764 95.1037 86.0176 95.4877 86.0176 95.888C86.0176 96.2883 86.1764 96.6722 86.4592 96.9555C86.742 97.2388 87.1257 97.3983 87.526 97.3989H158.756C158.954 97.3993 159.151 97.3604 159.335 97.2846C159.518 97.2089 159.685 97.0976 159.826 96.9573C159.966 96.8169 160.078 96.6503 160.154 96.4668C160.23 96.2833 160.269 96.0866 160.269 95.888C160.269 95.6894 160.23 95.4927 160.154 95.3092C160.078 95.1257 159.966 94.959 159.826 94.8187C159.685 94.6783 159.518 94.5671 159.335 94.4913C159.151 94.4155 158.954 94.3767 158.756 94.377H87.526Z" fill="#E6E6E6"/>
<path d="M87.4283 143.351C87.0281 143.352 86.6444 143.512 86.3616 143.795C86.0788 144.078 85.9199 144.462 85.9199 144.862C85.9199 145.263 86.0788 145.647 86.3616 145.93C86.6444 146.213 87.0281 146.373 87.4283 146.373H158.658C158.857 146.374 159.054 146.335 159.237 146.259C159.421 146.183 159.588 146.072 159.728 145.932C159.869 145.791 159.98 145.625 160.056 145.441C160.132 145.258 160.172 145.061 160.172 144.862C160.172 144.664 160.132 144.467 160.056 144.284C159.98 144.1 159.869 143.933 159.728 143.793C159.588 143.653 159.421 143.541 159.237 143.466C159.054 143.39 158.857 143.351 158.658 143.351H87.4283Z" fill="white"/>
<path d="M87.5266 103.443C87.1258 103.443 86.7415 103.602 86.4582 103.885C86.1748 104.169 86.0156 104.553 86.0156 104.954C86.0156 105.354 86.1748 105.739 86.4582 106.022C86.7415 106.305 87.1258 106.465 87.5266 106.465H118.177C118.578 106.465 118.962 106.305 119.245 106.022C119.529 105.739 119.688 105.354 119.688 104.954C119.688 104.553 119.529 104.169 119.245 103.885C118.962 103.602 118.578 103.443 118.177 103.443H87.5266Z" fill="#E6E6E6"/>
<path d="M87.4269 152.417C87.0262 152.417 86.6419 152.576 86.3586 152.859C86.0752 153.143 85.916 153.527 85.916 153.928C85.916 154.328 86.0752 154.713 86.3586 154.996C86.6419 155.279 87.0262 155.439 87.4269 155.439H118.077C118.478 155.439 118.862 155.279 119.146 154.996C119.429 154.713 119.588 154.328 119.588 153.928C119.588 153.527 119.429 153.143 119.146 152.859C118.862 152.576 118.478 152.417 118.077 152.417H87.4269Z" fill="white"/>
<path d="M168.093 215.416H47.915C47.3249 215.416 46.7593 215.181 46.3421 214.764C45.9248 214.347 45.6901 213.781 45.6895 213.191V183.38C45.6901 182.79 45.9248 182.224 46.3421 181.807C46.7593 181.39 47.3249 181.155 47.915 181.154H168.093C168.683 181.155 169.249 181.39 169.666 181.807C170.083 182.224 170.318 182.79 170.319 183.38V213.191C170.318 213.781 170.083 214.347 169.666 214.764C169.249 215.181 168.683 215.416 168.093 215.416ZM47.915 182.044C47.5609 182.045 47.2215 182.186 46.9712 182.436C46.7208 182.686 46.58 183.026 46.5796 183.38V213.191C46.58 213.545 46.7208 213.884 46.9712 214.135C47.2215 214.385 47.5609 214.526 47.915 214.526H168.093C168.447 214.526 168.787 214.385 169.037 214.135C169.287 213.884 169.428 213.545 169.429 213.191V183.38C169.428 183.026 169.287 182.686 169.037 182.436C168.787 182.186 168.447 182.045 168.093 182.044L47.915 182.044Z" fill="#E6E6E6"/>
<path d="M66.589 206.207C71.5958 206.207 75.6547 202.148 75.6547 197.141C75.6547 192.135 71.5958 188.076 66.589 188.076C61.5822 188.076 57.5234 192.135 57.5234 197.141C57.5234 202.148 61.5822 206.207 66.589 206.207Z" fill="#E6E6E6"/>
<path d="M87.5266 191.098C87.1258 191.098 86.7415 191.257 86.4582 191.54C86.1748 191.824 86.0156 192.208 86.0156 192.609C86.0156 193.009 86.1748 193.394 86.4582 193.677C86.7415 193.96 87.1258 194.12 87.5266 194.12H158.756C158.955 194.12 159.152 194.081 159.335 194.005C159.519 193.929 159.686 193.818 159.826 193.678C159.967 193.538 160.078 193.371 160.155 193.187C160.231 193.004 160.27 192.807 160.27 192.609C160.27 192.41 160.231 192.213 160.155 192.03C160.078 191.846 159.967 191.68 159.826 191.539C159.686 191.399 159.519 191.288 159.335 191.212C159.152 191.136 158.955 191.097 158.756 191.098H87.5266Z" fill="#E6E6E6"/>
<path d="M87.526 200.163C87.1257 200.164 86.742 200.323 86.4592 200.607C86.1764 200.89 86.0176 201.274 86.0176 201.674C86.0176 202.074 86.1764 202.458 86.4592 202.742C86.742 203.025 87.1257 203.184 87.526 203.185H118.176C118.577 203.185 118.961 203.026 119.245 202.743C119.528 202.459 119.687 202.075 119.687 201.674C119.687 201.273 119.528 200.889 119.245 200.606C118.961 200.322 118.577 200.163 118.176 200.163H87.526Z" fill="#E6E6E6"/>
<path d="M190.533 88.1342C197.725 88.1342 203.556 82.3036 203.556 75.1111C203.556 67.9187 197.725 62.0881 190.533 62.0881C183.34 62.0881 177.51 67.9187 177.51 75.1111C177.51 82.3036 183.34 88.1342 190.533 88.1342Z" fill="#FFB8B8"/>
<path d="M180.589 61.3481L178.33 60.4437C178.33 60.4437 183.054 55.2435 189.625 55.6957L187.777 53.6609C187.777 53.6609 192.295 51.8521 196.402 56.6001C198.561 59.096 201.059 62.0298 202.617 65.3346H205.036L204.026 67.5579L207.56 69.7811L203.933 69.3818C204.276 71.3012 204.159 73.2747 203.59 75.1397L203.687 76.897C203.687 76.897 199.483 70.3918 199.483 69.4874V71.7483C199.483 71.7483 197.224 69.7135 197.224 68.3569L195.991 69.9396L195.375 67.4526L187.777 69.9396L189.009 67.9048L184.286 68.5831L186.134 66.096C186.134 66.096 180.795 69.0352 180.589 71.5223C180.384 74.0093 177.714 77.1746 177.714 77.1746L176.482 74.9137C176.482 74.9137 174.634 64.7395 180.589 61.3481Z" fill="#2F2E41"/>
<path d="M216.078 111.676C216.078 111.676 213.177 119.134 213.783 126.514C213.894 127.835 214.339 129.107 215.076 130.209L179.541 147.079C179.541 147.079 163.485 148.741 167.492 155.754C171.499 162.766 186.025 152.248 186.025 152.248C186.025 152.248 224.092 146.738 227.097 141.228C230.103 135.718 232.106 112.678 232.106 112.678L216.078 111.676Z" fill="#FFB8B8"/>
<path d="M217.58 91.1395H225.094C225.094 91.1395 230.603 92.1413 232.106 102.159C233.609 112.177 235.111 114.681 233.609 114.681C232.106 114.681 214.074 114.18 214.074 113.679C214.074 113.179 217.58 91.1395 217.58 91.1395Z" fill="#754FC6"/>
</g>
<defs>
<clipPath id="clip0_150_56294">
<rect width="206.321" height="303.41" fill="white" transform="translate(31)"/>
</clipPath>
</defs>
</svg>
