<svg width="346" height="270" viewBox="0 0 346 270" fill="none" xmlns="http://www.w3.org/2000/svg">
<rect x="50" width="270" height="270" rx="135" fill="#AE98DD"/>
<path d="M304.769 216.718C287.537 229.599 282.678 252.229 282.678 252.229C282.678 252.229 305.758 253.975 322.99 241.094C340.222 228.213 345.08 205.583 345.08 205.583C345.08 205.583 322.001 203.837 304.769 216.718Z" fill="#3F3D56"/>
<path d="M282.688 252.01C282.688 252.01 282.435 251.869 281.978 251.588C281.612 251.363 281.111 251.05 280.506 250.65C275.091 247.082 261.063 236.588 255.31 220.395C248.111 200.121 256.611 178.592 256.611 178.592C256.611 178.592 275.154 189.016 283.03 207.74C283.373 208.546 283.691 209.369 283.99 210.208C290.254 227.848 284.632 246.438 283.066 250.969C282.831 251.648 282.688 252.01 282.688 252.01Z" fill="#754FC6"/>
<path d="M282.771 252.65L282.507 252.459C282.318 252.323 263.616 238.583 258.811 217.756C254.005 196.93 264.796 176.385 264.905 176.18L265.059 175.892L265.323 176.083C265.512 176.219 284.214 189.96 289.019 210.786C293.825 231.612 283.034 252.157 282.924 252.362L282.771 252.65ZM265.256 176.744C263.959 179.332 254.921 198.371 259.365 217.629C263.808 236.886 280.274 250.04 282.574 251.798C283.871 249.21 292.909 230.172 288.465 210.914C284.021 191.656 267.555 178.502 265.256 176.744Z" fill="#3F3D56"/>
<path opacity="0.1" d="M283.069 250.969C282.648 251.214 282.281 251.42 281.98 251.588C281.316 251.951 280.947 252.133 280.947 252.133C280.947 252.133 280.773 251.609 280.508 250.65C279.049 245.404 274.873 227.118 281.863 210.323C282.231 209.443 282.62 208.582 283.032 207.74C283.376 208.546 283.693 209.369 283.992 210.208C290.256 227.848 284.634 246.438 283.069 250.969Z" fill="black"/>
<path d="M311.96 222.745C303.696 242.609 282.948 252.867 282.948 252.867C282.948 252.867 275.597 230.919 283.861 211.055C292.125 191.192 312.874 180.934 312.874 180.934C312.874 180.934 320.224 202.882 311.96 222.745Z" fill="#754FC6"/>
<path d="M312.453 181.7L282.887 252.182L283.411 252.402L312.978 181.92L312.453 181.7Z" fill="#3F3D56"/>
<path d="M341.941 258.703C341.941 261.366 326.618 263.803 301.284 265.673C296.678 266.012 291.74 266.332 286.506 266.634C281.98 266.894 277.239 267.138 272.281 267.367C267.476 267.585 262.487 267.788 257.315 267.975C240.978 268.569 222.919 268.996 203.733 269.21C199.078 269.261 194.36 269.301 189.578 269.33C184.6 269.358 179.564 269.372 174.471 269.372C81.9784 269.372 7 264.597 7 258.703C7 252.809 81.9784 248.033 174.471 248.033C214.289 248.033 250.859 248.92 279.6 250.395C280.657 250.451 281.705 250.505 282.741 250.558C282.747 250.562 282.755 250.563 282.762 250.563C318.965 252.521 341.941 255.44 341.941 258.703Z" fill="#3F3D56"/>
<path opacity="0.15" d="M341.941 258.703C341.941 261.366 326.618 263.803 301.284 265.673C296.678 266.012 291.74 266.332 286.506 266.634C281.98 266.894 277.239 267.138 272.281 267.367C267.476 267.585 262.487 267.788 257.315 267.975C240.978 268.569 222.919 268.996 203.733 269.21C199.078 269.261 194.36 269.301 189.578 269.33C184.6 269.358 179.564 269.372 174.471 269.372C81.9784 269.372 7 264.597 7 258.703C7 252.809 81.9784 248.033 174.471 248.033C214.289 248.033 250.859 248.92 279.6 250.395C280.657 250.451 281.705 250.505 282.741 250.558C282.747 250.562 282.755 250.563 282.762 250.563C318.965 252.521 341.941 255.44 341.941 258.703Z" fill="black"/>
<path d="M329.073 256.825C329.073 259.052 314.787 261.089 291.169 262.653C286.877 262.935 282.272 263.202 277.394 263.455C273.175 263.672 268.755 263.875 264.132 264.067C259.652 264.252 255.002 264.422 250.18 264.576C234.948 265.074 218.111 265.429 200.225 265.609C195.887 265.651 191.488 265.685 187.029 265.708C182.387 265.734 177.692 265.746 172.946 265.745C86.7174 265.745 16.8164 261.752 16.8164 256.825C16.8164 251.898 86.7174 247.904 172.946 247.904C192.013 247.904 210.28 248.101 227.171 248.459H227.214C243.188 248.798 257.931 249.281 270.954 249.881C271.941 249.927 272.917 249.971 273.883 250.015C273.889 250.02 273.896 250.022 273.903 250.021C279.868 250.311 285.449 250.624 290.592 250.959C290.649 250.962 290.706 250.968 290.763 250.971C314.625 252.538 329.073 254.583 329.073 256.825Z" fill="#3F3D56"/>
<path d="M97.2478 246.779C97.2478 251.733 94.303 253.463 90.6698 253.463C90.5856 253.463 90.5015 253.462 90.4179 253.46C90.2496 253.456 90.0825 253.448 89.9179 253.437C86.6388 253.205 84.0918 251.386 84.0918 246.779C84.0918 242.012 90.1836 235.995 90.6425 235.549L90.6432 235.549C90.6607 235.531 90.6698 235.523 90.6698 235.523C90.6698 235.523 97.2478 241.825 97.2478 246.779Z" fill="#754FC6"/>
<path d="M90.4271 252.705L92.8331 249.343L90.4211 253.074L90.415 253.46C90.2467 253.456 90.0796 253.448 89.9149 253.437L90.1741 248.481L90.1723 248.442L90.1765 248.435L90.2013 247.967L87.7832 244.227L90.2086 247.616L90.2146 247.715L90.4102 243.97L88.3402 240.106L90.4356 243.313L90.6396 235.549L90.6402 235.523V235.549L90.6063 241.671L92.6672 239.244L90.5979 242.198L90.5434 245.551L92.468 242.333L90.5355 246.044L90.5052 247.909L93.2981 243.43L90.4943 248.559L90.4271 252.705Z" fill="#3F3D56"/>
<path d="M50.6314 220.825H50.0625V259.277H50.6314V220.825Z" fill="#3F3D56"/>
<path d="M50.3478 226.263C53.351 226.263 55.7855 223.828 55.7855 220.825C55.7855 217.822 53.351 215.387 50.3478 215.387C47.3447 215.387 44.9102 217.822 44.9102 220.825C44.9102 223.828 47.3447 226.263 50.3478 226.263Z" fill="#3F3D56"/>
<path d="M50.346 244.524C50.346 244.524 49.5692 227.816 33.6445 229.759L50.346 244.524Z" fill="#3F3D56"/>
<path d="M208.679 227.152C208.821 227.654 208.979 228.153 209.149 228.648C208.389 227.901 207.644 227.134 206.884 226.392C207.189 226.487 207.493 226.582 207.78 226.695C208.093 226.819 208.394 226.972 208.679 227.152ZM205 224.659C200.524 220.767 195.338 217.754 190.751 213.981C193.256 215.213 195.693 216.649 198.109 218.026C200.976 219.659 203.877 221.229 206.812 222.735C206.334 223.484 205.719 224.137 205 224.659ZM206.915 214.859C206.986 214.786 207.058 214.713 207.129 214.639C207.131 215.192 207.135 215.709 207.142 216.179C206.741 216.046 206.341 215.909 205.942 215.769C206.285 215.487 206.61 215.183 206.915 214.859ZM167.488 225.395C169.333 223.312 170.935 221.026 172.264 218.582C174.041 221.686 176.929 223.925 179.385 226.525C175.428 226.003 171.464 225.571 167.488 225.395Z" fill="url(#paint0_linear_37_4838)"/>
<path d="M40.363 254.175C40.363 259.129 37.4182 260.858 33.785 260.858C33.7009 260.858 33.6167 260.857 33.5332 260.855C33.3649 260.852 33.1978 260.844 33.0331 260.832C29.7541 260.601 27.207 258.782 27.207 254.175C27.207 249.407 33.2989 243.391 33.7578 242.945L33.7584 242.944C33.7759 242.927 33.785 242.918 33.785 242.918C33.785 242.918 40.363 249.221 40.363 254.175Z" fill="#754FC6"/>
<path d="M33.5423 260.101L35.9483 256.739L33.5363 260.47L33.5302 260.856C33.3619 260.852 33.1948 260.844 33.0301 260.833L33.2893 255.876L33.2875 255.838L33.2917 255.831L33.3165 255.362L30.8984 251.623L33.3238 255.011L33.3298 255.111L33.5254 251.366L31.4554 247.502L33.5508 250.709L33.7549 242.945L33.7555 242.918V242.944L33.7216 249.067L35.7824 246.639L33.7131 249.594L33.6586 252.947L35.5833 249.729L33.6507 253.44L33.6205 255.304L36.4133 250.825L33.6095 255.955L33.5423 260.101Z" fill="#3F3D56"/>
<path d="M3.44331 203.022C5.345 203.022 6.88662 201.481 6.88662 199.579C6.88662 197.677 5.345 196.136 3.44331 196.136C1.54162 196.136 0 197.677 0 199.579C0 201.481 1.54162 203.022 3.44331 203.022Z" fill="#754FC6"/>
<path d="M224.862 151.38C224.862 151.38 237.353 148.615 238.731 159.633C240.108 170.652 232.097 172.732 232.097 172.732L227.023 174.095L207.396 168.93L210.151 161.011L224.862 151.38Z" fill="#2F2E41"/>
<path d="M178.416 192.007C175.168 190.576 172.565 187.991 171.112 184.752C170.806 184.056 170.554 183.329 170.259 182.626C169.298 180.292 167.803 178.216 165.894 176.564C165.417 176.159 164.857 175.772 164.273 175.878C163.714 175.98 163.273 176.534 163.081 177.155C162.917 177.794 162.876 178.459 162.961 179.114C163.124 180.657 163.389 182.187 163.755 183.695L164.643 187.744C164.753 188.366 164.939 188.973 165.196 189.551C165.58 190.232 166.085 190.837 166.688 191.335C167.499 192.082 168.324 192.81 169.162 193.517C170.325 194.634 171.843 195.309 173.452 195.425C177.092 196.1 180.795 197.072 183.867 199.448C183.833 199.422 183.854 196.733 183.801 196.425C183.66 195.61 183.551 194.803 183.021 194.253C181.83 193.015 179.867 192.652 178.416 192.007Z" fill="#FBBEBE"/>
<path d="M215.73 161.022C218.193 161.022 220.189 159.014 220.189 156.538C220.189 154.062 218.193 152.055 215.73 152.055C213.268 152.055 211.271 154.062 211.271 156.538C211.271 159.014 213.268 161.022 215.73 161.022Z" fill="#2F2E41"/>
<path d="M212.956 153.83C211.746 153.696 210.401 153.596 209.432 154.336C208.917 154.791 208.506 155.351 208.226 155.978C207.293 157.729 206.374 159.512 205.905 161.441C205.507 163.077 205.441 164.788 204.948 166.398C204.034 169.385 201.691 171.905 201.424 175.019C201.304 176.412 201.537 178.043 200.521 178.997C200.27 179.208 200.002 179.398 199.72 179.565C199.015 180.038 198.417 180.652 197.965 181.37C197.584 181.975 197.291 182.669 196.718 183.094C195.812 183.766 194.306 183.697 193.859 184.737C193.4 185.805 194.566 186.994 194.296 188.126C194.076 189.048 193.048 189.47 192.34 190.096C191.434 190.899 191.019 192.109 190.641 193.263C189.15 193.545 187.615 193.501 186.142 193.134C184.669 192.766 183.294 192.084 182.109 191.135C183.354 194.201 183.381 197.584 183.435 200.894C183.453 201.968 183.419 203.174 182.652 203.922C186.202 203.998 189.664 204.959 193.128 205.742C194.642 206.084 196.285 206.382 197.697 205.734C198.489 205.31 199.198 204.746 199.79 204.07C201.674 202.159 203.651 200.074 204.112 197.423C204.37 195.938 204.12 194.413 204.189 192.907C204.273 191.041 204.844 189.237 205.333 187.435C206.332 183.745 207.002 179.974 207.335 176.166C207.54 173.816 209.57 171.925 210.638 169.825C212.655 165.86 214.716 161.731 214.868 157.281C214.919 155.792 214.428 153.993 212.956 153.83Z" fill="#2F2E41"/>
<path d="M218.494 163.091C220.388 163.091 221.924 161.547 221.924 159.642C221.924 157.738 220.388 156.194 218.494 156.194C216.6 156.194 215.064 157.738 215.064 159.642C215.064 161.547 216.6 163.091 218.494 163.091Z" fill="#2F2E41"/>
<path d="M217.714 157.05C218.55 158.527 218.551 160.364 218.091 161.999C217.631 163.634 216.752 165.112 215.883 166.569C215.028 168.003 214.163 169.45 213.016 170.66C218.309 170.914 223.442 168.837 228.113 166.321C231.872 164.297 235.622 161.798 237.628 158.015C236.455 158.368 235.162 158.02 234.124 157.367C233.115 156.664 232.211 155.823 231.439 154.867L228.781 151.877C228.157 151.226 227.608 150.506 227.146 149.731C226.571 148.671 226.327 147.463 226.445 146.263C225.389 147.368 224.209 148.347 222.928 149.181C221.03 150.417 218.937 151.313 217.035 152.541C216.36 152.977 214.86 153.677 215.246 154.559C215.623 155.419 217.179 156.106 217.714 157.05Z" fill="#FBBEBE"/>
<path opacity="0.1" d="M217.714 157.05C218.55 158.527 218.551 160.364 218.091 161.999C217.631 163.634 216.752 165.112 215.883 166.569C215.028 168.003 214.163 169.45 213.016 170.66C218.309 170.914 223.442 168.837 228.113 166.321C231.872 164.297 235.622 161.798 237.628 158.015C236.455 158.368 235.162 158.02 234.124 157.367C233.115 156.664 232.211 155.823 231.439 154.867L228.781 151.877C228.157 151.226 227.608 150.506 227.146 149.731C226.571 148.671 226.327 147.463 226.445 146.263C225.389 147.368 224.209 148.347 222.928 149.181C221.03 150.417 218.937 151.313 217.035 152.541C216.36 152.977 214.86 153.677 215.246 154.559C215.623 155.419 217.179 156.106 217.714 157.05Z" fill="black"/>
<path opacity="0.1" d="M302.33 246.845C299.772 263.48 283.64 257.905 264.119 257.905C243.497 257.905 226.66 264.127 225.609 243.818C244.947 244.228 262.794 244.814 278.557 245.54C279.752 245.595 280.934 245.649 282.104 245.702C282.111 245.707 282.119 245.71 282.128 245.709C289.349 246.06 296.104 246.439 302.33 246.845Z" fill="black"/>
<path d="M225.529 237.589C225.529 214.769 242.795 196.27 264.094 196.27C285.393 196.27 302.66 214.769 302.66 237.589C302.66 260.41 285.393 253.773 264.094 253.773C242.795 253.773 225.529 260.41 225.529 237.589Z" fill="#3F3D56"/>
<path d="M220.32 151.988C229.642 151.988 237.2 144.43 237.2 135.107C237.2 125.785 229.642 118.227 220.32 118.227C210.997 118.227 203.439 125.785 203.439 135.107C203.439 144.43 210.997 151.988 220.32 151.988Z" fill="#2F2E41"/>
<path d="M161.018 170.161L164.447 170.85L176.109 188.093L170.964 188.783L161.018 170.161Z" fill="#2F2E41"/>
<path d="M78.0586 240.123C78.9832 243.167 80.1222 246.141 81.4671 249.023C85.3324 248.214 89.135 247.131 92.8462 245.781C92.9606 245.739 90.7178 242.806 90.4823 242.566C89.5938 241.662 88.4436 240.606 87.2689 240.095C86.0844 239.579 84.6254 239.973 83.3575 240.037C81.5929 240.127 79.8266 240.156 78.0586 240.123Z" fill="#FBBEBE"/>
<path d="M87.3526 244.729C85.4194 244.124 84.2446 242.179 83.4583 240.303C82.672 238.427 82.0378 236.381 80.5464 235.004C79.975 235.032 79.5147 235.496 79.2319 235.996C78.9492 236.496 78.7809 237.06 78.4541 237.532C77.8321 238.431 76.7388 238.865 75.9568 239.627C75.137 240.426 74.6888 241.557 73.8402 242.325C72.7743 243.289 71.2675 243.529 69.8689 243.848C67.7059 244.342 65.6166 245.117 63.6543 246.152C62.9315 246.588 62.1584 246.934 61.3522 247.184C60.4649 247.354 59.5564 247.385 58.6597 247.274L52.4765 246.833C51.9262 246.762 51.3679 246.787 50.826 246.905C49.5549 247.262 48.7657 248.681 48.859 250.004C48.9524 251.328 49.7759 252.514 50.8158 253.331C51.8921 254.101 53.0795 254.703 54.3371 255.115C59.7233 257.149 65.2686 258.733 70.9161 259.851L70.9191 261.075C74.8461 263.006 79.1634 264.011 83.5395 264.014C83.8631 264.038 84.1877 263.982 84.4842 263.85C84.9181 263.614 85.1191 263.107 85.2795 262.639C86.7631 258.3 87.6312 253.776 87.8585 249.197C87.9683 248.036 87.8783 246.865 87.5923 245.734C87.2556 244.621 88.4151 245.089 87.3421 244.653" fill="#2F2E41"/>
<path opacity="0.1" d="M205.849 221.419C187.517 222.517 169.398 217.151 151.042 216.577C148.76 216.506 146.454 216.511 144.225 217.011C141.868 217.541 139.671 218.607 137.479 219.627C127.634 224.208 117.449 228.002 107.277 231.791L95.5923 236.143C93.2572 237.013 90.8376 237.896 88.352 237.744C87.2379 237.676 85.8702 237.507 85.2433 238.436C83.3424 241.252 84.2407 245.39 85.4967 248.551C85.9044 249.576 86.5939 250.683 87.6865 250.8C88.4557 250.882 89.1709 250.437 89.9184 250.237C92.0453 249.667 94.1658 251.098 96.3548 251.331C99.0591 251.619 101.57 250.078 104.123 249.135C108.356 247.57 112.985 247.619 117.434 246.878C124.896 245.636 131.811 242.171 138.275 238.224C140.737 236.721 143.228 235.111 146.055 234.561C149.306 233.929 152.646 234.766 155.834 235.668C163.435 237.819 170.918 240.367 178.252 243.302C182.114 244.848 185.948 246.505 189.966 247.574C198.657 249.862 207.851 249.326 216.217 246.043C219.151 244.884 222.34 242.834 222.508 239.668C222.604 237.863 221.204 236.272 220.268 234.729C219.669 233.739 219.068 232.749 218.415 231.794C215.254 227.172 211.418 221.086 205.849 221.419Z" fill="black"/>
<path d="M113.305 241.015C116.174 241.995 119.069 242.895 121.989 243.716C123.623 241.033 126.681 239.165 127.378 236.098C127.421 235.964 127.421 235.82 127.378 235.687C127.304 235.556 127.188 235.452 127.05 235.393C124.958 234.234 122.636 233.553 120.25 233.4C118.365 233.281 117.505 235.248 116.651 236.631C116.305 237.191 114.073 241.277 113.305 241.015Z" fill="#FBBEBE"/>
<path d="M117.278 239.056C115.584 238.701 113.925 237.79 113.06 236.283C112.655 235.576 112.223 234.624 111.414 234.677C110.663 234.727 110.318 235.623 110.149 236.361C109.515 239.123 108.893 241.908 107.782 244.513C106.671 247.118 105.027 249.564 102.708 251.177C101.645 251.916 100.459 252.469 99.4198 253.242C98.4859 253.937 97.6717 254.808 96.6401 255.346C95.9497 255.662 95.2373 255.928 94.5084 256.141C93.4358 256.514 92.4111 257.013 91.4554 257.627C90.6151 258.115 89.9026 258.796 89.3766 259.613C89.1181 260.025 88.9671 260.495 88.9372 260.981C88.9072 261.467 88.9994 261.952 89.2053 262.393C89.4267 262.756 89.7226 263.067 90.0733 263.308C90.4241 263.548 90.8217 263.711 91.2401 263.786C92.0756 263.93 92.9276 263.952 93.7692 263.85C97.1117 263.603 100.45 263.306 103.789 263.008C105.201 262.917 106.605 262.722 107.988 262.424C108.719 262.248 109.436 262.014 110.164 261.826C111.413 261.504 112.693 261.318 113.982 261.27C114.356 261.239 114.733 261.273 115.095 261.372C115.869 261.625 116.417 262.394 117.216 262.55C117.728 262.599 118.244 262.53 118.726 262.348C121.131 261.691 123.658 261.709 126.147 261.574C127.244 261.515 128.528 261.307 129.031 260.325C129.658 259.101 128.618 257.732 128.203 256.419C127.996 255.581 127.881 254.722 127.859 253.858C127.668 251.724 127.041 249.652 126.018 247.769C125.167 246.206 124.006 244.479 124.604 242.802C124.807 242.233 125.21 241.704 125.17 241.1C124.994 238.452 118.815 239.379 117.278 239.056Z" fill="#2F2E41"/>
<path opacity="0.1" d="M178.416 192.007C175.168 190.576 172.565 187.991 171.112 184.752C170.806 184.056 170.554 183.329 170.259 182.626C169.298 180.292 167.803 178.216 165.894 176.564C165.417 176.159 164.857 175.772 164.273 175.878C163.714 175.98 163.273 176.534 163.081 177.155C162.917 177.794 162.876 178.459 162.961 179.114C163.124 180.657 163.389 182.187 163.755 183.695L164.643 187.744C164.753 188.366 164.939 188.973 165.196 189.551C165.58 190.232 166.085 190.837 166.688 191.335C167.499 192.082 168.324 192.81 169.162 193.517C170.325 194.634 171.843 195.309 173.452 195.425C177.092 196.1 180.795 197.072 183.867 199.448C183.833 199.422 183.854 196.733 183.801 196.425C183.66 195.61 183.551 194.803 183.021 194.253C181.83 193.015 179.867 192.652 178.416 192.007Z" fill="black"/>
<path opacity="0.1" d="M212.956 153.83C211.746 153.696 210.401 153.596 209.432 154.336C208.917 154.791 208.506 155.351 208.226 155.978C207.293 157.729 206.374 159.512 205.905 161.441C205.507 163.077 205.441 164.788 204.948 166.398C204.034 169.385 201.691 171.905 201.424 175.019C201.304 176.412 201.537 178.043 200.521 178.997C200.27 179.208 200.002 179.398 199.72 179.565C199.015 180.038 198.417 180.652 197.965 181.37C197.584 181.975 197.291 182.669 196.718 183.094C195.812 183.766 194.306 183.697 193.859 184.737C193.4 185.805 194.566 186.994 194.296 188.126C194.076 189.048 193.048 189.47 192.34 190.096C191.434 190.899 191.019 192.109 190.641 193.263C189.15 193.545 187.615 193.501 186.142 193.134C184.669 192.766 183.294 192.084 182.109 191.135C183.354 194.201 183.381 197.584 183.435 200.894C183.453 201.968 183.419 203.174 182.652 203.922C186.202 203.998 189.664 204.959 193.128 205.742C194.642 206.084 196.285 206.382 197.697 205.734C198.489 205.31 199.198 204.746 199.79 204.07C201.674 202.159 203.651 200.074 204.112 197.423C204.37 195.938 204.12 194.413 204.189 192.907C204.273 191.041 204.844 189.237 205.333 187.435C206.332 183.745 207.002 179.974 207.335 176.166C207.54 173.816 209.57 171.925 210.638 169.825C212.655 165.86 214.716 161.731 214.868 157.281C214.919 155.792 214.428 153.993 212.956 153.83Z" fill="black"/>
<path d="M208.766 225.279C204.948 223.463 202.154 220.075 199.067 217.177C193.174 211.643 185.967 207.725 179.77 202.537C175.663 199.098 171.99 195.093 167.476 192.214C163.501 189.683 158.995 188.104 154.309 187.6C153.772 187.508 153.222 187.536 152.696 187.681C152.104 187.942 151.589 188.35 151.198 188.866C149.198 191.123 147.421 193.567 145.89 196.164C138.036 209.497 126.88 220.708 117.637 233.108C117.342 233.399 117.167 233.791 117.147 234.205C117.126 234.62 117.262 235.027 117.527 235.346L119.407 239.03C120.459 241.092 122.145 243.493 124.413 243.084C125.449 242.896 126.275 242.134 127.038 241.404L135.479 233.336L144.328 224.877C149.513 219.92 154.787 214.849 158.167 208.509C160.809 213.09 165.496 216.089 168.711 220.283C169.934 221.879 170.934 223.633 172.025 225.322C173.776 228.029 175.766 230.57 177.753 233.107L187.904 246.063C189.289 247.83 190.712 249.632 192.605 250.831C195.009 252.353 197.933 252.754 200.763 253.007C204.576 253.349 208.405 253.487 212.233 253.422C215.151 253.372 218.161 253.181 220.78 251.885C223.399 250.588 225.55 247.928 225.414 244.996C225.343 243.471 224.68 242.041 223.951 240.703C220.325 234.05 215.586 228.524 208.766 225.279Z" fill="#2F2E41"/>
<path d="M217.776 157.573C216.781 159.246 216.568 161.221 217.776 162.746C217.926 162.936 218.485 164.113 218.726 164.124C218.959 164.105 219.176 163.995 219.33 163.818C220.616 162.643 221.558 161.144 222.687 159.816C223.817 158.489 225.241 157.279 226.958 157.011C229.031 156.689 231.032 157.787 232.845 158.846C233.599 159.287 234.38 159.753 234.855 160.488C235.237 161.178 235.462 161.944 235.515 162.731C236.141 167.451 236.127 172.229 236.113 176.991C236.102 180.432 236.089 183.898 235.438 187.277C235.101 189.023 234.596 190.738 234.357 192.5C234.181 194.056 234.11 195.621 234.144 197.187L234.139 203.739C234.095 204.942 234.18 206.147 234.393 207.332C234.704 208.768 235.384 210.093 235.838 211.49C236.306 213.096 236.626 214.741 236.795 216.405L237.692 223.19C237.974 225.326 238.183 227.664 236.891 229.384C236.307 230.162 235.539 230.784 234.947 231.556C232.729 234.444 233.44 238.566 232.515 242.095C231.785 244.679 230.284 246.979 228.213 248.689C226.628 250.036 224.581 251.095 222.54 250.717C219.785 250.205 218.13 247.332 217.379 244.618C216.628 241.904 216.354 238.95 214.727 236.657C213.398 234.785 211.339 233.607 209.478 232.271C207.616 230.934 205.797 229.212 205.392 226.948C205.215 225.959 205.325 224.941 205.22 223.942C205.072 222.676 204.586 221.473 203.814 220.459C203.042 219.446 202.012 218.658 200.831 218.178C199.421 217.63 197.679 217.434 196.885 216.14C198.935 214.985 200.296 212.849 201.013 210.598C201.731 208.347 201.877 205.959 202.018 203.6L202.489 195.715C202.699 192.192 202.795 188.7 204.347 185.533C205.04 184.118 205.903 182.793 206.626 181.392C207.581 179.426 208.396 177.395 209.067 175.315C210.191 172.084 211.317 168.853 212.319 165.582C212.797 164.023 213.256 162.434 214.108 161.046C214.96 159.658 216.181 157.873 217.776 157.573Z" fill="#754FC6"/>
<path d="M200.279 208.796L202.364 208.871L202.809 205.718C202.867 205.087 203.016 204.468 203.251 203.879C203.595 203.257 203.996 202.669 204.45 202.122C206.504 199.221 206.354 195.369 206.863 191.845C207.541 187.145 209.504 182.745 211.446 178.416L215.496 169.389C216.304 167.856 216.691 166.137 216.616 164.406C216.652 163.011 217.066 157.933 217.101 156.538C217.115 156.021 215.963 156.308 215.73 155.848C215.222 154.846 214.527 157.564 213.578 158.16C212.63 158.756 212.106 159.836 211.703 160.886C210.831 163.16 210.297 165.551 209.484 167.848C208.671 170.144 207.533 172.4 205.703 173.998C204.871 174.725 203.913 175.301 203.128 176.078C200.608 178.569 200.363 182.504 200.274 186.057C200.222 188.168 199.814 208.796 200.279 208.796Z" fill="#2F2E41"/>
<path d="M230.315 153.808C228.289 154.604 227.178 156.802 226.608 158.913C226.039 161.025 225.807 163.275 224.718 165.17C222.174 169.598 215.687 170.889 213.892 175.674C213.304 177.239 213.33 178.957 213.172 180.623C212.846 184.052 211.719 187.364 211.385 190.792C211.127 193.448 211.35 196.125 211.573 198.783L213.84 225.826C214.168 229.732 214.159 233.928 213.161 237.717C215.457 238.165 217.843 237.565 219.973 236.594C222.103 235.623 224.047 234.29 226.097 233.159C229.621 231.215 233.509 229.837 236.595 227.247C237.154 226.812 237.633 226.283 238.01 225.683C238.629 224.614 238.679 223.321 238.974 222.12C239.24 221.162 239.58 220.225 239.99 219.319C241.12 216.594 242.104 213.811 242.939 210.981C243.513 209.104 243.966 207.191 244.296 205.256C244.543 203.714 244.677 202.157 244.81 200.602C244.974 198.166 245.458 195.763 246.249 193.454C248.221 187.947 249.338 182.17 249.561 176.325C249.627 175.48 249.57 174.631 249.39 173.803C249.122 172.777 248.516 171.879 248.019 170.943C247.076 169.168 246.511 167.215 245.621 165.413C243.612 161.34 240.064 158.252 236.346 155.664C234.521 154.394 232.383 152.994 230.315 153.808Z" fill="#2F2E41"/>
<path d="M182.946 197.926C181.377 197.012 179.808 196.028 178.627 194.645C178.061 193.982 177.594 193.238 177.019 192.584C175.62 190.991 173.637 190.004 171.588 189.488C169.538 188.972 167.406 188.893 165.293 188.876C163.88 188.864 162.431 188.884 161.108 189.384C159.785 189.883 158.591 190.961 158.335 192.359C158.028 194.041 159.127 195.68 160.446 196.759C161.674 197.761 163.118 198.462 164.665 198.806C165.927 199.027 167.2 199.177 168.478 199.253C175.986 200.039 182.684 204.126 189.263 207.847C195.041 211.115 200.932 214.17 206.935 217.012C207.173 215.215 207.272 213.401 207.231 211.588C207.2 210.234 207.133 208.17 205.854 207.375C204.364 206.449 201.911 206.236 200.23 205.685C196.362 204.417 192.583 202.888 188.921 201.11C186.891 200.124 184.899 199.063 182.946 197.926Z" fill="#FBBEBE"/>
<path d="M215.724 155.503C223.111 155.503 229.099 149.481 229.099 142.053C229.099 134.625 223.111 128.603 215.724 128.603C208.336 128.603 202.348 134.625 202.348 142.053C202.348 149.481 208.336 155.503 215.724 155.503Z" fill="#FBBEBE"/>
<path d="M234.132 169.057C232.938 170.45 232.34 172.245 231.537 173.898C229.885 177.299 227.295 180.218 225.998 183.771C224.629 187.52 224.675 191.979 221.992 194.923C221.526 195.435 220.963 195.929 220.828 196.61C220.748 197.014 220.831 197.447 220.691 197.834C220.307 198.904 218.556 198.958 218.229 200.047C218.134 200.365 218.187 200.718 218.069 201.029C217.801 201.733 216.871 201.841 216.249 202.262C214.951 203.143 215.212 205.191 214.286 206.46C213.553 207.465 212.171 207.801 210.943 207.631C209.716 207.461 208.592 206.873 207.474 206.336C207.09 206.119 206.665 205.986 206.226 205.944C205.708 205.962 205.207 206.133 204.786 206.436C202.315 208.007 201.155 211.119 201.172 214.058C201.189 216.997 202.199 219.83 203.234 222.579C203.375 223.043 203.606 223.474 203.915 223.848C204.734 224.715 206.161 224.575 207.249 224.093C208.337 223.611 209.325 222.853 210.495 222.641C212.565 222.266 214.588 223.688 216.688 223.571C218.226 223.485 219.587 222.591 220.866 221.725C222.906 220.344 224.983 218.929 226.483 216.969C227.402 215.769 228.074 214.401 228.875 213.118C229.905 211.544 231.033 210.038 232.253 208.607L239.966 199.166C241.819 197.148 243.095 194.669 243.66 191.988C244.394 189.472 245.132 186.927 245.259 184.308C245.363 182.153 245.05 180 244.699 177.871C244.352 175.775 243.958 173.656 243.038 171.744C241.362 168.264 237.283 165.384 234.132 169.057Z" fill="#2F2E41"/>
<path d="M238.613 129.761C247.935 129.761 255.493 122.203 255.493 112.88C255.493 103.558 247.935 96 238.613 96C229.29 96 221.732 103.558 221.732 112.88C221.732 122.203 229.29 129.761 238.613 129.761Z" fill="#2F2E41"/>
<path d="M253.173 126.859C250.988 128.439 248.457 129.471 245.791 129.872C243.125 130.272 240.402 130.028 237.85 129.16C235.298 128.292 232.99 126.826 231.121 124.884C229.252 122.941 227.875 120.579 227.105 117.996C227.397 120.311 228.165 122.541 229.361 124.545C230.557 126.548 232.156 128.282 234.057 129.636C235.957 130.991 238.117 131.937 240.401 132.414C242.686 132.891 245.044 132.89 247.328 132.41C249.611 131.93 251.771 130.981 253.669 129.625C255.568 128.268 257.165 126.532 258.359 124.527C259.553 122.522 260.318 120.292 260.607 117.976C260.895 115.66 260.7 113.31 260.034 111.073C260.412 114.078 259.975 117.129 258.768 119.907C257.561 122.684 255.628 125.086 253.173 126.859Z" fill="#2F2E41"/>
<path d="M224.844 150.3C231.68 150.3 237.223 144.757 237.223 137.921C237.223 131.084 231.68 125.542 224.844 125.542C218.007 125.542 212.465 131.084 212.465 137.921C212.465 144.757 218.007 150.3 224.844 150.3Z" fill="#2F2E41"/>
<path d="M214.412 141.859C220.471 141.859 225.384 138.018 225.384 133.278C225.384 128.539 220.471 124.698 214.412 124.698C208.352 124.698 203.439 128.539 203.439 133.278C203.439 138.018 208.352 141.859 214.412 141.859Z" fill="#2F2E41"/>
<path d="M205.849 221.419C187.517 222.517 169.398 217.151 151.042 216.577C148.76 216.506 146.454 216.511 144.225 217.011C141.868 217.541 139.671 218.607 137.479 219.627C127.634 224.208 117.449 228.002 107.277 231.791L95.5923 236.143C93.2572 237.013 90.8376 237.896 88.352 237.744C87.2379 237.676 85.8702 237.507 85.2433 238.436C83.3424 241.252 84.2407 245.39 85.4967 248.551C85.9044 249.576 86.5939 250.683 87.6865 250.8C88.4557 250.882 89.1709 250.437 89.9184 250.237C92.0453 249.667 94.1658 251.098 96.3548 251.331C99.0591 251.619 101.57 250.078 104.123 249.135C108.356 247.57 112.985 247.619 117.434 246.878C124.896 245.636 131.811 242.171 138.275 238.224C140.737 236.721 143.228 235.111 146.055 234.561C149.306 233.929 152.646 234.766 155.834 235.668C163.435 237.819 170.918 240.367 178.252 243.302C182.114 244.848 185.948 246.505 189.966 247.574C198.657 249.862 207.851 249.326 216.217 246.043C219.151 244.884 222.34 242.834 222.508 239.668C222.604 237.863 221.204 236.272 220.268 234.729C219.669 233.739 219.068 232.749 218.415 231.794C215.254 227.172 211.418 221.086 205.849 221.419Z" fill="#2F2E41"/>
<path d="M218.633 148.725C219.371 148.125 219.24 146.741 218.34 145.635C217.44 144.528 216.112 144.117 215.375 144.717C214.637 145.317 214.769 146.701 215.668 147.807C216.568 148.914 217.896 149.325 218.633 148.725Z" fill="#FBBEBE"/>
<path d="M210.179 258.726C210.179 263.68 207.235 265.41 203.601 265.41C203.517 265.41 203.433 265.409 203.35 265.407C203.181 265.403 203.014 265.395 202.85 265.384C199.57 265.152 197.023 263.333 197.023 258.726C197.023 253.959 203.115 247.943 203.574 247.496L203.575 247.496C203.592 247.478 203.601 247.47 203.601 247.47C203.601 247.47 210.179 253.772 210.179 258.726Z" fill="#754FC6"/>
<path d="M203.359 264.652L205.765 261.29L203.353 265.021L203.347 265.407C203.178 265.403 203.011 265.395 202.847 265.384L203.106 260.428L203.104 260.389L203.108 260.382L203.133 259.914L200.715 256.174L203.14 259.563L203.146 259.662L203.342 255.917L201.272 252.053L203.367 255.26L203.571 247.496L203.572 247.47V247.496L203.538 253.618L205.599 251.191L203.53 254.145L203.475 257.498L205.4 254.28L203.467 257.991L203.437 259.856L206.23 255.377L203.426 260.506L203.359 264.652Z" fill="#3F3D56"/>
<defs>
<linearGradient id="paint0_linear_37_4838" x1="188.318" y1="228.648" x2="188.318" y2="213.981" gradientUnits="userSpaceOnUse">
<stop stop-color="#808080" stop-opacity="0.25"/>
<stop offset="0.53514" stop-color="#808080" stop-opacity="0.12"/>
<stop offset="1" stop-color="#808080" stop-opacity="0.1"/>
</linearGradient>
</defs>
</svg>
