<svg width="313" height="271" viewBox="0 0 313 271" fill="none" xmlns="http://www.w3.org/2000/svg">
<rect x="21.1211" width="270" height="270" rx="135" fill="#AE98DD"/>
<path d="M118.784 226.232C117.463 236.582 112.606 246.052 107.424 255.173C107.253 255.484 107.076 255.79 106.896 256.1H53.0363C51.947 255.818 50.8718 255.507 49.8011 255.173C43.7178 253.321 37.9748 250.496 32.7951 246.807C12.9803 232.531 5.35556 205.555 8.79949 181.383C10.9409 166.366 17.5318 151.033 30.3663 142.945C37.1427 138.667 45.8472 137.276 53.6481 138.866C53.8522 138.903 54.0561 138.949 54.2646 138.991C60.9761 140.502 66.9553 144.257 70.3575 150.305C76.4757 161.174 72.8326 174.639 69.8246 186.737C66.8256 198.834 65.1986 213.314 73.9033 222.237C71.0295 213.778 73.8662 203.687 80.7307 197.968C85.9173 193.652 93.1387 192.035 99.7251 193.374C100.355 193.509 100.977 193.662 101.588 193.847C103.067 194.28 104.493 194.877 105.839 195.627C116.105 201.36 120.263 214.566 118.784 226.232Z" fill="#F2F2F2"/>
<path d="M86.8489 255.173C88.3413 255.521 89.8384 255.827 91.3448 256.1H83.2011C82.1349 255.813 81.0734 255.507 80.0215 255.173C77.7085 254.45 75.4311 253.621 73.1893 252.684C64.1974 248.911 55.9145 243.247 49.6479 235.711C46.5832 232.059 44.0805 227.971 42.2226 223.581C40.208 218.619 38.9277 213.389 38.422 208.058C37.2863 197.119 38.4451 185.879 40.6096 175.135C42.8434 164 46.4492 153.184 51.3445 142.935C51.9331 141.707 52.5418 140.487 53.1706 139.274C53.2139 139.174 53.2794 139.085 53.3621 139.015C53.4448 138.944 53.5426 138.893 53.6479 138.866C53.8619 138.824 54.0836 138.869 54.2644 138.991C54.4815 139.116 54.6425 139.319 54.7141 139.559C54.7857 139.798 54.7624 140.056 54.6492 140.28C49.6019 150.122 45.7759 160.545 43.2562 171.316C40.7905 181.824 39.3907 192.818 39.868 203.622C40.3222 213.717 42.9597 223.646 48.9434 231.901C54.4081 239.437 61.9539 245.379 70.3017 249.426C75.5854 251.954 81.1358 253.882 86.8489 255.173Z" fill="white"/>
<path d="M104.722 256.1H102.32C102.052 255.794 101.792 255.484 101.537 255.173C96.0683 248.528 92.3634 240.612 90.7652 232.156C88.8243 221.603 90.3342 210.705 95.0712 201.078C96.3928 198.378 97.95 195.8 99.7248 193.374C100.355 193.508 100.976 193.661 101.588 193.847C96.9199 200.032 93.78 207.233 92.4246 214.862C91.2154 222.011 91.6174 229.34 93.6013 236.314C95.5852 243.288 99.1009 249.731 103.892 255.173C104.16 255.484 104.439 255.794 104.722 256.1Z" fill="white"/>
<path d="M254.789 248.218C255.138 250.949 256.42 253.448 257.788 255.856C257.833 255.938 257.879 256.018 257.927 256.1H272.141C272.429 256.026 272.713 255.944 272.995 255.856C274.601 255.367 276.116 254.621 277.483 253.648C282.713 249.88 284.725 242.761 283.816 236.381C283.251 232.418 281.512 228.371 278.124 226.236C276.285 225.116 274.091 224.732 271.98 225.16C271.926 225.17 271.872 225.182 271.817 225.193C270.939 225.363 270.106 225.717 269.374 226.231C268.642 226.746 268.027 227.41 267.57 228.179C265.955 231.048 266.917 234.601 267.711 237.794C268.502 240.987 268.932 244.808 266.634 247.163C266.971 246.178 267.039 245.122 266.832 244.102C266.625 243.082 266.151 242.135 265.457 241.36C264.763 240.584 263.875 240.007 262.884 239.688C261.893 239.369 260.836 239.32 259.819 239.546C259.653 239.581 259.489 239.622 259.328 239.671C258.937 239.785 258.561 239.942 258.206 240.14C255.496 241.653 254.399 245.139 254.789 248.218Z" fill="#F2F2F2"/>
<path d="M263.218 255.856C262.824 255.947 262.429 256.028 262.031 256.1H264.181C264.462 256.025 264.742 255.944 265.02 255.856C265.63 255.665 266.231 255.446 266.823 255.199C269.223 254.225 271.353 252.688 273.036 250.719C273.845 249.755 274.505 248.677 274.996 247.518C275.527 246.208 275.865 244.828 275.999 243.421C276.243 240.512 276.048 237.583 275.421 234.732C274.832 231.793 273.88 228.939 272.588 226.234C272.433 225.91 272.272 225.588 272.106 225.268C272.095 225.241 272.078 225.218 272.056 225.199C272.034 225.181 272.008 225.167 271.98 225.16C271.924 225.149 271.865 225.161 271.818 225.193C271.76 225.226 271.718 225.28 271.699 225.343C271.68 225.406 271.686 225.474 271.716 225.533C273.048 228.131 274.058 230.882 274.723 233.724C275.408 236.512 275.709 239.381 275.617 242.25C275.568 244.919 274.735 247.515 273.222 249.714C271.75 251.694 269.815 253.282 267.585 254.339C266.19 255.006 264.726 255.515 263.218 255.856Z" fill="white"/>
<path d="M258.5 256.1H259.134C259.205 256.02 259.273 255.938 259.34 255.856C260.784 254.102 261.762 252.013 262.184 249.781C262.696 246.996 262.298 244.12 261.047 241.579C260.698 240.866 260.287 240.186 259.819 239.546C259.653 239.581 259.489 239.622 259.327 239.671C260.559 241.303 261.388 243.203 261.746 245.217C262.065 247.104 261.959 249.038 261.435 250.878C260.911 252.719 259.984 254.419 258.719 255.856C258.648 255.938 258.575 256.02 258.5 256.1Z" fill="white"/>
<path d="M157.331 185.499H112.843L112.372 171.821C112.351 171.228 112.459 170.637 112.689 170.09C112.919 169.543 113.264 169.052 113.702 168.651C114.139 168.251 114.658 167.949 115.223 167.768C115.788 167.588 116.386 167.531 116.975 167.603L142.864 170.773H142.867C146.705 170.784 150.382 172.315 153.094 175.032C155.805 177.748 157.329 181.429 157.331 185.267V185.499Z" fill="#754FC6"/>
<path d="M137.504 136.979H106.476C106.063 136.979 105.655 137.061 105.274 137.218C104.892 137.376 104.546 137.608 104.254 137.899C103.962 138.191 103.731 138.538 103.573 138.919C103.415 139.3 103.334 139.709 103.334 140.122V171.15C103.334 171.562 103.415 171.971 103.573 172.352C103.731 172.733 103.962 173.08 104.254 173.372C104.546 173.663 104.892 173.895 105.274 174.053C105.655 174.21 106.063 174.292 106.476 174.292H137.504C137.917 174.292 138.325 174.211 138.707 174.053C139.088 173.895 139.434 173.663 139.726 173.372C140.018 173.08 140.249 172.733 140.407 172.352C140.565 171.971 140.646 171.562 140.646 171.15V140.122C140.646 139.709 140.565 139.3 140.407 138.919C140.249 138.538 140.018 138.191 139.726 137.899C139.434 137.608 139.088 137.376 138.707 137.218C138.325 137.061 137.917 136.979 137.504 136.979Z" fill="#D9AC80"/>
<path d="M130.514 160.181L115.864 163.034C114.995 163.202 114.095 163.019 113.361 162.524C112.627 162.029 112.119 161.264 111.949 160.395L110.823 154.612C110.654 153.743 110.838 152.843 111.332 152.109C111.827 151.375 112.593 150.867 113.461 150.697L128.111 147.844C128.98 147.676 129.88 147.86 130.614 148.354C131.348 148.849 131.856 149.615 132.026 150.483L133.152 156.266C133.321 157.135 133.137 158.035 132.643 158.769C132.148 159.503 131.382 160.011 130.514 160.181Z" fill="#754FC6"/>
<path d="M127.584 153.349L116.404 155.526C116.2 155.566 115.988 155.523 115.815 155.407C115.642 155.29 115.523 155.11 115.483 154.905C115.443 154.701 115.486 154.489 115.603 154.316C115.719 154.143 115.9 154.024 116.104 153.984L127.284 151.807C127.489 151.767 127.701 151.81 127.873 151.927C128.046 152.043 128.165 152.223 128.205 152.428C128.245 152.632 128.202 152.844 128.086 153.017C127.969 153.19 127.789 153.309 127.584 153.349Z" fill="white"/>
<path d="M125.412 156.573L119.629 157.699C119.425 157.739 119.213 157.696 119.04 157.58C118.867 157.463 118.748 157.283 118.708 157.079C118.668 156.874 118.711 156.662 118.828 156.489C118.944 156.317 119.124 156.197 119.329 156.157L125.111 155.031C125.213 155.012 125.317 155.012 125.418 155.032C125.519 155.053 125.615 155.093 125.701 155.151C125.786 155.209 125.86 155.283 125.916 155.369C125.973 155.455 126.013 155.551 126.033 155.652C126.052 155.753 126.052 155.858 126.031 155.959C126.011 156.06 125.971 156.156 125.913 156.241C125.855 156.327 125.781 156.4 125.695 156.457C125.609 156.514 125.513 156.554 125.412 156.573Z" fill="white"/>
<path d="M140.646 140.122V144.245H103.334V140.122C103.334 139.709 103.415 139.3 103.573 138.919C103.731 138.538 103.962 138.191 104.254 137.899C104.546 137.608 104.892 137.376 105.274 137.218C105.655 137.061 106.063 136.979 106.476 136.979H137.504C137.917 136.979 138.325 137.061 138.707 137.218C139.088 137.376 139.434 137.608 139.726 137.899C140.018 138.191 140.249 138.538 140.407 138.919C140.565 139.3 140.646 139.709 140.646 140.122Z" fill="#CA9E74"/>
<path d="M215.156 145.537C214.941 144.842 214.576 144.202 214.086 143.663C213.597 143.124 212.995 142.699 212.324 142.418C211.652 142.137 210.928 142.006 210.2 142.035C209.473 142.064 208.761 142.253 208.114 142.587L165.427 127.271L163.547 137.935L206.098 149.637C206.731 150.686 207.728 151.466 208.898 151.83C210.068 152.194 211.332 152.116 212.448 151.61C213.565 151.105 214.457 150.207 214.956 149.088C215.455 147.969 215.526 146.705 215.156 145.537Z" fill="#FFB8B8"/>
<path opacity="0.2" d="M215.156 145.537C214.941 144.842 214.576 144.202 214.086 143.663C213.597 143.124 212.995 142.699 212.324 142.418C211.652 142.137 210.928 142.006 210.2 142.035C209.473 142.064 208.761 142.253 208.114 142.587L165.427 127.271L163.547 137.935L206.098 149.637C206.731 150.686 207.728 151.466 208.898 151.83C210.068 152.194 211.332 152.116 212.448 151.61C213.565 151.105 214.457 150.207 214.956 149.088C215.455 147.969 215.526 146.705 215.156 145.537Z" fill="black"/>
<path d="M173.003 129.215L168.972 139.746C168.858 140.045 168.68 140.317 168.451 140.541C168.222 140.766 167.947 140.939 167.645 141.047C167.343 141.156 167.021 141.199 166.702 141.172C166.382 141.146 166.072 141.05 165.792 140.893L155.995 135.379C154.466 134.783 153.235 133.606 152.572 132.104C151.91 130.602 151.87 128.899 152.461 127.368C153.052 125.836 154.227 124.602 155.727 123.935C157.226 123.269 158.93 123.224 160.462 123.811L171.402 126.237C171.715 126.307 172.01 126.443 172.266 126.636C172.521 126.83 172.733 127.077 172.884 127.359C173.036 127.642 173.126 127.954 173.146 128.274C173.167 128.594 173.118 128.915 173.003 129.215Z" fill="#754FC6"/>
<path d="M218.514 155.288L203.219 162.24L205.227 169.801C209.105 184.4 210.134 199.61 208.258 214.598L219.441 216.934L228.711 193.295L225.467 166.412L218.514 155.288Z" fill="#754FC6"/>
<path d="M248.528 190.283C238.478 190.283 230.288 197.588 229.891 206.737H267.164C266.767 197.588 258.577 190.283 248.528 190.283Z" fill="#3F3D56"/>
<path d="M240.702 191.859C240.179 150.562 216.659 154.361 216.659 154.361C216.659 154.361 217.099 167.215 217.31 167.615C232.298 195.972 207.563 229.217 176.077 223.101C175.484 222.986 174.913 222.869 174.366 222.75C170.377 221.917 166.854 219.596 164.516 216.258C162.177 212.921 161.197 208.817 161.776 204.783C164.877 179.876 149.451 180.317 149.451 180.317H126.894L115.18 169.774C114.766 169.402 114.268 169.137 113.728 169.002C113.188 168.867 112.624 168.866 112.084 169C111.544 169.133 111.045 169.397 110.63 169.768C110.216 170.139 109.899 170.606 109.706 171.128L108.199 175.219C108.199 175.219 85.9511 177.536 87.8051 199.321H94.6834C94.6668 199.94 94.6916 200.559 94.7576 201.175L146.091 200.758C149.1 200.733 151.756 203.171 151.769 206.181C151.772 206.913 151.627 207.639 151.343 208.314C151.059 208.99 150.642 209.601 150.117 210.111C149.591 210.622 148.968 211.021 148.285 211.285C147.601 211.549 146.872 211.672 146.14 211.648L137.863 211.372C135.314 222.728 141.572 230.376 148.466 235.185C154.958 239.647 162.66 242.013 170.537 241.964H193.02C222.221 241.964 227.32 217.398 227.32 217.398C242.615 210.909 240.702 191.859 240.702 191.859Z" fill="#3F3D56"/>
<path d="M247.137 255.405C261.536 255.405 273.209 243.732 273.209 229.333C273.209 214.934 261.536 203.261 247.137 203.261C232.737 203.261 221.064 214.934 221.064 229.333C221.064 243.732 232.737 255.405 247.137 255.405Z" fill="#3F3D56"/>
<path d="M247.136 235.723C250.666 235.723 253.527 232.862 253.527 229.333C253.527 225.804 250.666 222.943 247.136 222.943C243.607 222.943 240.746 225.804 240.746 229.333C240.746 232.862 243.607 235.723 247.136 235.723Z" fill="white"/>
<path d="M115.502 255.405C132.077 255.405 145.514 241.968 145.514 225.393C145.514 208.818 132.077 195.381 115.502 195.381C98.927 195.381 85.4902 208.818 85.4902 225.393C85.4902 241.968 98.927 255.405 115.502 255.405Z" fill="#3F3D56"/>
<path d="M115.502 232.749C119.565 232.749 122.858 229.456 122.858 225.393C122.858 221.331 119.565 218.037 115.502 218.037C111.44 218.037 108.146 221.331 108.146 225.393C108.146 229.456 111.44 232.749 115.502 232.749Z" fill="white"/>
<path d="M203.262 164.295L197.758 149.347C197.472 148.568 197.341 147.74 197.374 146.911C197.407 146.081 197.604 145.266 197.952 144.512C198.3 143.759 198.793 143.081 199.403 142.518C200.013 141.955 200.728 141.517 201.507 141.231L217.285 135.422C218.655 134.918 220.112 134.688 221.572 134.746C223.031 134.804 224.465 135.149 225.791 135.762C227.117 136.374 228.31 137.242 229.301 138.315C230.292 139.388 231.061 140.646 231.566 142.017C232.021 143.247 232.254 144.548 232.253 145.86C232.247 147.526 231.87 149.169 231.149 150.671C230.429 152.173 229.382 153.495 228.087 154.542C227.151 155.293 226.099 155.886 224.972 156.298L203.262 164.295Z" fill="#3F3D56"/>
<path d="M232.021 145.86C232.02 147.492 231.653 149.103 230.947 150.574C230.241 152.045 229.214 153.339 227.942 154.361C225.991 153.846 224.175 152.913 222.62 151.625C221.066 150.337 219.811 148.727 218.942 146.905C218.073 145.083 217.611 143.094 217.589 141.076C217.566 139.058 217.984 137.059 218.812 135.218C220.401 134.872 222.048 134.887 223.632 135.261C225.215 135.635 226.695 136.359 227.962 137.38C229.229 138.401 230.251 139.692 230.953 141.16C231.656 142.627 232.021 144.233 232.021 145.86Z" fill="#754FC6"/>
<path d="M91.7449 201.221C95.3287 201.221 98.2339 197.693 98.2339 193.341C98.2339 188.989 95.3287 185.461 91.7449 185.461C88.1611 185.461 85.2559 188.989 85.2559 193.341C85.2559 197.693 88.1611 201.221 91.7449 201.221Z" fill="#754FC6"/>
<path d="M177.524 222.346H183.207L185.91 207.608L177.523 207.608L177.524 222.346Z" fill="#FFB8B8"/>
<path d="M176.074 220.491L187.265 220.49H187.265C188.202 220.49 189.129 220.675 189.995 221.033C190.86 221.392 191.646 221.917 192.308 222.579C192.971 223.241 193.496 224.028 193.854 224.893C194.213 225.758 194.397 226.685 194.397 227.622V227.854L176.075 227.854L176.074 220.491Z" fill="#2F2E41"/>
<path d="M184.119 216.297C184.052 216.297 183.986 216.294 183.919 216.287L176.055 215.715C175.737 215.685 175.43 215.583 175.158 215.416C174.886 215.249 174.655 215.022 174.485 214.752C174.314 214.482 174.208 214.177 174.174 213.859C174.14 213.541 174.18 213.22 174.29 212.92L184.814 189.275C184.889 189.064 184.92 188.84 184.904 188.617C184.889 188.393 184.827 188.176 184.723 187.977C184.62 187.777 184.475 187.601 184.298 187.46C184.121 187.319 183.917 187.218 183.698 187.162C178.749 185.868 166.052 182.424 155.06 178.393C150.351 176.666 147.385 174.171 146.245 170.976C144.741 166.764 146.965 162.923 147.061 162.762L147.135 162.636L157.478 163.576L168.691 164.53L193.263 177.706C195.322 178.82 196.886 180.668 197.643 182.883C198.401 185.097 198.296 187.516 197.35 189.657L186.022 215.061C185.858 215.429 185.591 215.741 185.253 215.961C184.915 216.18 184.521 216.297 184.119 216.297Z" fill="#2F2E41"/>
<path d="M159.279 116.795C165.566 116.795 170.663 111.698 170.663 105.411C170.663 99.1234 165.566 94.0266 159.279 94.0266C152.991 94.0266 147.895 99.1234 147.895 105.411C147.895 111.698 152.991 116.795 159.279 116.795Z" fill="#FFB8B8"/>
<path d="M174.278 223.737H179.961L182.664 208.998L174.277 208.999L174.278 223.737Z" fill="#FFB8B8"/>
<path d="M172.83 221.881L184.021 221.881H184.021C184.958 221.881 185.885 222.065 186.751 222.424C187.616 222.782 188.402 223.307 189.064 223.97C189.727 224.632 190.252 225.418 190.61 226.283C190.969 227.149 191.153 228.076 191.153 229.013V229.244L172.83 229.245L172.83 221.881Z" fill="#2F2E41"/>
<path d="M180.874 217.687C180.808 217.687 180.742 217.684 180.675 217.678L172.811 217.105C172.493 217.076 172.186 216.974 171.914 216.807C171.641 216.64 171.411 216.413 171.24 216.143C171.07 215.873 170.964 215.567 170.93 215.249C170.896 214.932 170.935 214.611 171.045 214.311L181.57 190.665C181.645 190.454 181.676 190.23 181.66 190.007C181.645 189.784 181.583 189.566 181.479 189.368C181.375 189.167 181.231 188.991 181.054 188.85C180.877 188.71 180.673 188.608 180.454 188.552C175.505 187.259 162.808 183.814 151.816 179.784C147.107 178.057 144.141 175.561 143.001 172.367C141.497 168.155 143.721 164.314 143.817 164.153L143.891 164.026L154.234 164.967L165.447 165.92L190.019 179.097C192.078 180.21 193.642 182.058 194.399 184.273C195.157 186.488 195.052 188.907 194.106 191.048L182.778 216.451C182.614 216.819 182.347 217.132 182.009 217.351C181.671 217.571 181.277 217.687 180.874 217.687Z" fill="#2F2E41"/>
<path d="M162.787 123.25L150.736 119.079C150.736 119.079 143.171 124.891 146.805 139.31C148.703 146.751 148.15 154.605 145.229 161.707C144.878 162.585 144.472 163.442 144.016 164.27C144.016 164.27 157.457 180.493 169.972 168.442L165.105 145.035C165.105 145.035 172.753 129.507 162.787 123.25Z" fill="#754FC6"/>
<path d="M160.692 117.182C159.072 114.757 157.793 111.394 159.577 109.086C161.338 106.809 164.811 107.144 167.508 106.136C171.264 104.732 173.443 100.32 172.763 96.3676C172.084 92.4156 168.911 89.1395 165.132 87.799C161.353 86.4586 157.091 86.8945 153.39 88.4381C148.834 90.3384 144.926 94.0142 143.287 98.6706C141.648 103.327 142.524 108.918 145.924 112.497C149.569 116.334 155.289 117.356 160.581 117.294" fill="#2F2E41"/>
<path d="M150.102 96.4945C148.06 98.1566 144.945 97.4184 142.753 95.9597C140.562 94.501 138.783 92.424 136.412 91.2803C132.232 89.2641 127.177 90.6044 123.109 92.8377C119.04 95.0711 115.434 98.1565 111.136 99.9091C106.838 101.662 101.354 101.748 98.0999 98.439C97.2991 100.759 97.2336 103.27 97.9125 105.629C98.5913 107.988 99.9813 110.08 101.893 111.619C103.805 113.159 106.145 114.071 108.594 114.232C111.043 114.392 113.482 113.793 115.579 112.516C120.288 109.648 122.889 103.634 128.17 102.051C131.093 101.175 134.231 101.88 137.185 102.644C140.139 103.409 143.219 104.234 146.2 103.584C149.181 102.933 151.969 100.254 151.59 97.227L150.102 96.4945Z" fill="#2F2E41"/>
<path d="M214.589 145.073C214.289 144.41 213.848 143.82 213.296 143.346C212.743 142.871 212.094 142.524 211.393 142.327C210.692 142.131 209.957 142.091 209.238 142.21C208.52 142.328 207.837 142.603 207.236 143.015L162.986 133.083L162.436 143.897L206.105 150.259C206.863 151.222 207.948 151.874 209.155 152.09C210.361 152.307 211.605 152.074 212.65 151.434C213.696 150.795 214.471 149.794 214.828 148.622C215.185 147.45 215.1 146.187 214.589 145.073Z" fill="#FFB8B8"/>
<path d="M170.744 134.076L168.043 145.024C167.966 145.336 167.823 145.627 167.623 145.878C167.424 146.13 167.172 146.335 166.886 146.48C166.6 146.625 166.286 146.707 165.966 146.72C165.645 146.733 165.326 146.677 165.029 146.555L154.626 142.292C153.034 141.891 151.666 140.874 150.822 139.465C149.979 138.056 149.728 136.37 150.126 134.777C150.524 133.184 151.538 131.814 152.945 130.967C154.352 130.12 156.038 129.866 157.632 130.261L168.788 131.319C169.107 131.349 169.416 131.448 169.694 131.609C169.972 131.77 170.211 131.988 170.397 132.25C170.583 132.512 170.71 132.81 170.77 133.125C170.829 133.441 170.821 133.765 170.744 134.076V134.076Z" fill="#754FC6"/>
<path d="M209.477 153.666C211.269 153.666 212.721 152.213 212.721 150.421C212.721 148.629 211.269 147.177 209.477 147.177C207.685 147.177 206.232 148.629 206.232 150.421C206.232 152.213 207.685 153.666 209.477 153.666Z" fill="#754FC6"/>
<path d="M313 271H152.272H93.464H0C0.0202651 265.068 15.7571 259.206 60.6778 255.315C60.6778 255.315 257.568 254.606 277.674 255.315C297.78 256.023 313 271 313 271Z" fill="#EDEDED"/>
</svg>
